<svg width="479" height="230" viewBox="0 0 479 230" fill="none" xmlns="http://www.w3.org/2000/svg">
<g clip-path="url(#clip0)">
<path d="M6.17187 65V7.89063H21.6797V65H6.17187ZM59.4922 19.7266C55.8203 19.7266 52.9557 21.237 50.8984 24.2578C48.8411 27.2526 47.8125 31.3932 47.8125 36.6797C47.8125 47.6693 51.9922 53.1641 60.3516 53.1641C62.8776 53.1641 65.3255 52.8125 67.6953 52.1094C70.0651 51.4063 72.4479 50.5599 74.8437 49.5703V62.6172C70.0781 64.7266 64.6875 65.7812 58.6719 65.7812C50.0521 65.7812 43.4375 63.2813 38.8281 58.2813C34.2448 53.2813 31.9531 46.0547 31.9531 36.6016C31.9531 30.6901 33.0599 25.4948 35.2734 21.0156C37.513 16.5365 40.7161 13.099 44.8828 10.7031C49.0755 8.28126 53.9974 7.07032 59.6484 7.07032C65.8203 7.07032 71.7187 8.41146 77.3437 11.0938L72.6172 23.2422C70.5078 22.2526 68.3984 21.4193 66.2891 20.7422C64.1797 20.0651 61.9141 19.7266 59.4922 19.7266ZM108.945 31.5625H133.594V62.3438C126.901 64.6354 119.544 65.7812 111.523 65.7812C102.721 65.7812 95.9114 63.2292 91.0937 58.125C86.3021 53.0208 83.9062 45.7422 83.9062 36.2891C83.9062 27.0703 86.5365 19.8958 91.7969 14.7656C97.0573 9.63542 104.427 7.07032 113.906 7.07032C117.5 7.07032 120.885 7.40886 124.062 8.08594C127.266 8.76303 130.052 9.6224 132.422 10.6641L127.539 22.7734C123.424 20.7422 118.906 19.7266 113.984 19.7266C109.479 19.7266 105.99 21.1979 103.516 24.1406C101.068 27.0573 99.8437 31.237 99.8437 36.6797C99.8437 42.0182 100.951 46.0938 103.164 48.9063C105.404 51.6927 108.62 53.0859 112.812 53.0859C115.104 53.0859 117.214 52.8646 119.141 52.4219V43.4766H108.945V31.5625ZM145.234 65V7.89063H160.664V52.5391H182.656V65H145.234ZM222.422 65H206.758V34.7656C206.758 31.0938 206.836 27.7344 206.992 24.6875C206.029 25.8594 204.831 27.0833 203.398 28.3594L196.914 33.7109L188.906 23.8672L208.516 7.89063H222.422V65ZM258.437 27.5781C261.719 27.5781 264.674 28.3464 267.305 29.8828C269.961 31.3932 272.018 33.5417 273.477 36.3281C274.961 39.1146 275.703 42.3307 275.703 45.9766C275.703 52.3568 273.776 57.2526 269.922 60.6641C266.094 64.0755 260.286 65.7812 252.5 65.7812C245.833 65.7812 240.391 64.7526 236.172 62.6953V50.0391C238.437 51.0807 240.99 51.9401 243.828 52.6172C246.693 53.2943 249.154 53.6328 251.211 53.6328C254.076 53.6328 256.276 53.0339 257.812 51.8359C259.349 50.612 260.117 48.8151 260.117 46.4453C260.117 44.2578 259.336 42.5521 257.773 41.3281C256.211 40.1042 253.841 39.4922 250.664 39.4922C248.242 39.4922 245.625 39.9479 242.812 40.8594L237.148 38.0469L239.297 7.89063H271.875V20.7422H252.422L251.719 28.2813C253.75 27.8906 255.195 27.6823 256.055 27.6563C256.914 27.6042 257.708 27.5781 258.437 27.5781Z" fill="#00AEC0"/>
<path d="M10.6641 107.835H7.45117V94.9289C7.45117 93.3886 7.48763 92.1672 7.56055 91.2649C7.35091 91.4836 7.09115 91.7251 6.78125 91.9895C6.48047 92.2538 5.45964 93.0923 3.71875 94.5051L2.10547 92.468L7.98438 87.8469H10.6641V107.835ZM24.0078 95.3528C26.0221 95.3528 27.6172 95.886 28.793 96.9524C29.9688 98.0188 30.5566 99.4725 30.5566 101.314C30.5566 103.447 29.8867 105.114 28.5469 106.318C27.2161 107.512 25.3203 108.109 22.8594 108.109C20.6263 108.109 18.8717 107.749 17.5957 107.029V104.116C18.334 104.536 19.1816 104.859 20.1387 105.087C21.0957 105.315 21.9844 105.429 22.8047 105.429C24.2539 105.429 25.3568 105.105 26.1133 104.458C26.8698 103.811 27.248 102.863 27.248 101.614C27.248 99.2265 25.7259 98.0324 22.6816 98.0324C22.2533 98.0324 21.7246 98.078 21.0957 98.1692C20.4668 98.2512 19.9154 98.3469 19.4414 98.4563L18.0059 97.6086L18.7715 87.8469H29.1621V90.7043H21.6016L21.1504 95.6535C21.4694 95.5988 21.8568 95.535 22.3125 95.4621C22.7773 95.3892 23.3424 95.3528 24.0078 95.3528ZM39.9219 105.511C40.7057 105.511 41.4896 105.388 42.2734 105.142V107.562C41.918 107.717 41.4577 107.844 40.8926 107.945C40.3366 108.054 39.7578 108.109 39.1562 108.109C36.112 108.109 34.5898 106.504 34.5898 103.296V95.1477H32.5254V93.7258L34.7402 92.55L35.834 89.3508H37.8164V92.7141H42.123V95.1477H37.8164V103.241C37.8164 104.016 38.0078 104.59 38.3906 104.964C38.7826 105.329 39.293 105.511 39.9219 105.511ZM58.6113 107.835H55.3848V98.5383C55.3848 97.3716 55.1478 96.5012 54.6738 95.927C54.209 95.3528 53.4661 95.0656 52.4453 95.0656C51.0964 95.0656 50.1029 95.4712 49.4648 96.2824C48.8359 97.0845 48.5215 98.4335 48.5215 100.329V107.835H45.3086V86.5617H48.5215V91.9621C48.5215 92.828 48.4668 93.7531 48.3574 94.7375H48.5625C49 94.0084 49.6061 93.4432 50.3809 93.0422C51.1647 92.6412 52.0762 92.4406 53.1152 92.4406C56.7793 92.4406 58.6113 94.2863 58.6113 97.9778V107.835ZM70.6973 107.835V87.8469H73.9648V107.835H70.6973ZM95.9082 107.835H91.9023L82.0723 91.9074H81.9629L82.0312 92.7961C82.1589 94.4914 82.2227 96.0409 82.2227 97.4445V107.835H79.2559V87.8469H83.2207L93.0234 103.693H93.1055C93.0872 103.483 93.0508 102.722 92.9961 101.409C92.9414 100.088 92.9141 99.0578 92.9141 98.3195V87.8469H95.9082V107.835ZM108.09 107.835H104.822V90.6496H98.9434V87.8469H113.969V90.6496H108.09V107.835ZM128.352 107.835H117.045V87.8469H128.352V90.6086H120.312V96.05H127.846V98.7844H120.312V105.06H128.352V107.835ZM135.953 97.1438H138.223C139.745 97.1438 140.848 96.8612 141.531 96.2961C142.215 95.731 142.557 94.8925 142.557 93.7805C142.557 92.6503 142.188 91.8391 141.449 91.3469C140.711 90.8547 139.599 90.6086 138.113 90.6086H135.953V97.1438ZM135.953 99.8508V107.835H132.686V87.8469H138.332C140.911 87.8469 142.821 88.33 144.061 89.2961C145.3 90.2623 145.92 91.7206 145.92 93.6711C145.92 96.1594 144.626 97.9322 142.037 98.9895L147.684 107.835H143.965L139.18 99.8508H135.953ZM167.248 107.835H163.242L153.412 91.9074H153.303L153.371 92.7961C153.499 94.4914 153.562 96.0409 153.562 97.4445V107.835H150.596V87.8469H154.561L164.363 103.693H164.445C164.427 103.483 164.391 102.722 164.336 101.409C164.281 100.088 164.254 99.0578 164.254 98.3195V87.8469H167.248V107.835ZM184.926 107.835L182.93 102.284H175.287L173.332 107.835H169.887L177.365 87.7649H180.92L188.398 107.835H184.926ZM182.068 99.468L180.195 94.0266C180.059 93.662 179.867 93.0878 179.621 92.3039C179.384 91.5201 179.22 90.9459 179.129 90.5813C178.883 91.7024 178.523 92.9283 178.049 94.259L176.244 99.468H182.068ZM197.941 107.835H194.674V90.6496H188.795V87.8469H203.82V90.6496H197.941V107.835ZM206.896 107.835V87.8469H210.164V107.835H206.896ZM233.201 97.8137C233.201 101.068 232.385 103.597 230.754 105.402C229.132 107.206 226.83 108.109 223.85 108.109C220.833 108.109 218.513 107.215 216.891 105.429C215.277 103.633 214.471 101.086 214.471 97.7863C214.471 94.4869 215.282 91.953 216.904 90.1848C218.536 88.4166 220.86 87.5324 223.877 87.5324C226.848 87.5324 229.145 88.4302 230.768 90.2258C232.39 92.0214 233.201 94.5507 233.201 97.8137ZM217.943 97.8137C217.943 100.275 218.44 102.143 219.434 103.419C220.427 104.686 221.899 105.32 223.85 105.32C225.791 105.32 227.254 104.691 228.238 103.433C229.232 102.175 229.729 100.302 229.729 97.8137C229.729 95.3619 229.236 93.5025 228.252 92.2356C227.277 90.9686 225.818 90.3352 223.877 90.3352C221.917 90.3352 220.436 90.9686 219.434 92.2356C218.44 93.5025 217.943 95.3619 217.943 97.8137ZM254.146 107.835H250.141L240.311 91.9074H240.201L240.27 92.7961C240.397 94.4914 240.461 96.0409 240.461 97.4445V107.835H237.494V87.8469H241.459L251.262 103.693H251.344C251.326 103.483 251.289 102.722 251.234 101.409C251.18 100.088 251.152 99.0578 251.152 98.3195V87.8469H254.146V107.835ZM271.824 107.835L269.828 102.284H262.186L260.23 107.835H256.785L264.264 87.7649H267.818L275.297 107.835H271.824ZM268.967 99.468L267.094 94.0266C266.957 93.662 266.766 93.0878 266.52 92.3039C266.283 91.5201 266.118 90.9459 266.027 90.5813C265.781 91.7024 265.421 92.9283 264.947 94.259L263.143 99.468H268.967ZM277.936 107.835V87.8469H281.203V105.032H289.666V107.835H277.936ZM308.889 90.3625C307.011 90.3625 305.535 91.0279 304.459 92.3586C303.383 93.6893 302.846 95.5259 302.846 97.8684C302.846 100.32 303.361 102.175 304.391 103.433C305.43 104.691 306.929 105.32 308.889 105.32C309.736 105.32 310.557 105.238 311.35 105.073C312.143 104.9 312.967 104.682 313.824 104.417V107.22C312.257 107.812 310.479 108.109 308.492 108.109C305.566 108.109 303.32 107.224 301.752 105.456C300.184 103.679 299.4 101.141 299.4 97.841C299.4 95.7629 299.779 93.9445 300.535 92.386C301.301 90.8274 302.404 89.6334 303.844 88.8039C305.284 87.9745 306.975 87.5598 308.916 87.5598C310.958 87.5598 312.844 87.9882 314.576 88.8449L313.4 91.5656C312.726 91.2466 312.01 90.9686 311.254 90.7317C310.507 90.4856 309.718 90.3625 308.889 90.3625ZM335.877 97.8137C335.877 101.068 335.061 103.597 333.43 105.402C331.807 107.206 329.506 108.109 326.525 108.109C323.508 108.109 321.189 107.215 319.566 105.429C317.953 103.633 317.146 101.086 317.146 97.7863C317.146 94.4869 317.958 91.953 319.58 90.1848C321.212 88.4166 323.536 87.5324 326.553 87.5324C329.524 87.5324 331.821 88.4302 333.443 90.2258C335.066 92.0214 335.877 94.5507 335.877 97.8137ZM320.619 97.8137C320.619 100.275 321.116 102.143 322.109 103.419C323.103 104.686 324.575 105.32 326.525 105.32C328.467 105.32 329.93 104.691 330.914 103.433C331.908 102.175 332.404 100.302 332.404 97.8137C332.404 95.3619 331.912 93.5025 330.928 92.2356C329.952 90.9686 328.494 90.3352 326.553 90.3352C324.593 90.3352 323.112 90.9686 322.109 92.2356C321.116 93.5025 320.619 95.3619 320.619 97.8137ZM356.822 107.835H352.816L342.986 91.9074H342.877L342.945 92.7961C343.073 94.4914 343.137 96.0409 343.137 97.4445V107.835H340.17V87.8469H344.135L353.938 103.693H354.02C354.001 103.483 353.965 102.722 353.91 101.409C353.855 100.088 353.828 99.0578 353.828 98.3195V87.8469H356.822V107.835ZM365.34 107.835H362.1V87.8469H373.379V90.6086H365.34V96.8567H372.873V99.632H365.34V107.835ZM388.309 107.835H377.002V87.8469H388.309V90.6086H380.27V96.05H387.803V98.7844H380.27V105.06H388.309V107.835ZM395.91 97.1438H398.18C399.702 97.1438 400.805 96.8612 401.488 96.2961C402.172 95.731 402.514 94.8925 402.514 93.7805C402.514 92.6503 402.145 91.8391 401.406 91.3469C400.668 90.8547 399.556 90.6086 398.07 90.6086H395.91V97.1438ZM395.91 99.8508V107.835H392.643V87.8469H398.289C400.868 87.8469 402.778 88.33 404.018 89.2961C405.257 90.2623 405.877 91.7206 405.877 93.6711C405.877 96.1594 404.583 97.9322 401.994 98.9895L407.641 107.835H403.922L399.137 99.8508H395.91ZM421.859 107.835H410.553V87.8469H421.859V90.6086H413.82V96.05H421.354V98.7844H413.82V105.06H421.859V107.835ZM442.846 107.835H438.84L429.01 91.9074H428.9L428.969 92.7961C429.096 94.4914 429.16 96.0409 429.16 97.4445V107.835H426.193V87.8469H430.158L439.961 103.693H440.043C440.025 103.483 439.988 102.722 439.934 101.409C439.879 100.088 439.852 99.0578 439.852 98.3195V87.8469H442.846V107.835ZM456.627 90.3625C454.749 90.3625 453.273 91.0279 452.197 92.3586C451.122 93.6893 450.584 95.5259 450.584 97.8684C450.584 100.32 451.099 102.175 452.129 103.433C453.168 104.691 454.667 105.32 456.627 105.32C457.475 105.32 458.295 105.238 459.088 105.073C459.881 104.9 460.706 104.682 461.562 104.417V107.22C459.995 107.812 458.217 108.109 456.23 108.109C453.305 108.109 451.058 107.224 449.49 105.456C447.923 103.679 447.139 101.141 447.139 97.841C447.139 95.7629 447.517 93.9445 448.273 92.386C449.039 90.8274 450.142 89.6334 451.582 88.8039C453.022 87.9745 454.713 87.5598 456.654 87.5598C458.696 87.5598 460.583 87.9882 462.314 88.8449L461.139 91.5656C460.464 91.2466 459.749 90.9686 458.992 90.7317C458.245 90.4856 457.456 90.3625 456.627 90.3625ZM477.176 107.835H465.869V87.8469H477.176V90.6086H469.137V96.05H476.67V98.7844H469.137V105.06H477.176V107.835ZM20.3848 135.814C20.3848 139.068 19.569 141.597 17.9375 143.402C16.3151 145.206 14.0137 146.109 11.0332 146.109C8.01628 146.109 5.69661 145.215 4.07422 143.429C2.46094 141.633 1.6543 139.086 1.6543 135.786C1.6543 132.487 2.46549 129.953 4.08789 128.185C5.7194 126.417 8.04362 125.532 11.0605 125.532C14.0319 125.532 16.3288 126.43 17.9512 128.226C19.5736 130.021 20.3848 132.551 20.3848 135.814ZM5.12695 135.814C5.12695 138.275 5.6237 140.143 6.61719 141.419C7.61068 142.686 9.08268 143.32 11.0332 143.32C12.9746 143.32 14.4375 142.691 15.4219 141.433C16.4154 140.175 16.9121 138.302 16.9121 135.814C16.9121 133.362 16.4199 131.502 15.4355 130.236C14.4603 128.969 13.002 128.335 11.0605 128.335C9.10091 128.335 7.61979 128.969 6.61719 130.236C5.6237 131.502 5.12695 133.362 5.12695 135.814ZM41.3301 145.835H37.3242L27.4941 129.907H27.3848L27.4531 130.796C27.5807 132.491 27.6445 134.041 27.6445 135.445V145.835H24.6777V125.847H28.6426L38.4453 141.693H38.5273C38.5091 141.483 38.4727 140.722 38.418 139.409C38.3633 138.088 38.3359 137.058 38.3359 136.32V125.847H41.3301V145.835ZM62.0566 134.993H69.4121V145.029C68.209 145.42 67.0514 145.698 65.9395 145.863C64.8366 146.027 63.6426 146.109 62.3574 146.109C59.3314 146.109 56.998 145.215 55.3574 143.429C53.7168 141.633 52.8965 139.104 52.8965 135.841C52.8965 132.624 53.8216 130.108 55.6719 128.294C57.5221 126.471 60.0697 125.56 63.3145 125.56C65.4017 125.56 67.3796 125.961 69.248 126.763L68.0996 129.484C66.4772 128.736 64.8548 128.363 63.2324 128.363C61.0996 128.363 59.4134 129.032 58.1738 130.372C56.9342 131.712 56.3145 133.544 56.3145 135.868C56.3145 138.311 56.8704 140.17 57.9824 141.447C59.1035 142.713 60.7122 143.347 62.8086 143.347C63.8659 143.347 64.9961 143.215 66.1992 142.95V137.796H62.0566V134.993ZM77.4922 135.144H79.7617C81.2839 135.144 82.3867 134.861 83.0703 134.296C83.7539 133.731 84.0957 132.892 84.0957 131.78C84.0957 130.65 83.7266 129.839 82.9883 129.347C82.25 128.855 81.138 128.609 79.6523 128.609H77.4922V135.144ZM77.4922 137.851V145.835H74.2246V125.847H79.8711C82.4505 125.847 84.36 126.33 85.5996 127.296C86.8392 128.262 87.459 129.721 87.459 131.671C87.459 134.159 86.1647 135.932 83.5762 136.989L89.2227 145.835H85.5039L80.7188 137.851H77.4922ZM103.441 145.835H92.1348V125.847H103.441V128.609H95.4023V134.05H102.936V136.784H95.4023V143.06H103.441V145.835ZM119.082 145.835H107.775V125.847H119.082V128.609H111.043V134.05H118.576V136.784H111.043V143.06H119.082V145.835ZM138.674 145.835H134.887L128.611 136.784L126.684 138.357V145.835H123.416V125.847H126.684V135.39C127.577 134.296 128.465 133.243 129.35 132.232L134.75 125.847H138.469C134.978 129.948 132.476 132.87 130.963 134.611L138.674 145.835ZM148.6 145.835V125.847H151.867V143.032H160.33V145.835H148.6ZM163.775 145.835V125.847H167.043V145.835H163.775ZM188.986 145.835H184.98L175.15 129.907H175.041L175.109 130.796C175.237 132.491 175.301 134.041 175.301 135.445V145.835H172.334V125.847H176.299L186.102 141.693H186.184C186.165 141.483 186.129 140.722 186.074 139.409C186.02 138.088 185.992 137.058 185.992 136.32V125.847H188.986V145.835ZM202.439 134.993H209.795V145.029C208.592 145.42 207.434 145.698 206.322 145.863C205.219 146.027 204.025 146.109 202.74 146.109C199.714 146.109 197.381 145.215 195.74 143.429C194.1 141.633 193.279 139.104 193.279 135.841C193.279 132.624 194.204 130.108 196.055 128.294C197.905 126.471 200.452 125.56 203.697 125.56C205.785 125.56 207.762 125.961 209.631 126.763L208.482 129.484C206.86 128.736 205.238 128.363 203.615 128.363C201.482 128.363 199.796 129.032 198.557 130.372C197.317 131.712 196.697 133.544 196.697 135.868C196.697 138.311 197.253 140.17 198.365 141.447C199.486 142.713 201.095 143.347 203.191 143.347C204.249 143.347 205.379 143.215 206.582 142.95V137.796H202.439V134.993ZM230.275 125.847V138.78C230.275 140.257 229.956 141.551 229.318 142.663C228.689 143.766 227.773 144.618 226.57 145.22C225.376 145.812 223.945 146.109 222.277 146.109C219.798 146.109 217.87 145.452 216.494 144.14C215.118 142.827 214.43 141.023 214.43 138.726V125.847H217.711V138.493C217.711 140.143 218.094 141.36 218.859 142.144C219.625 142.928 220.801 143.32 222.387 143.32C225.467 143.32 227.008 141.702 227.008 138.466V125.847H230.275ZM235.389 145.835V125.847H238.656V145.835H235.389ZM255.473 140.407C255.473 142.185 254.83 143.579 253.545 144.591C252.26 145.603 250.487 146.109 248.227 146.109C245.966 146.109 244.116 145.758 242.676 145.056V141.966C243.587 142.394 244.553 142.732 245.574 142.978C246.604 143.224 247.561 143.347 248.445 143.347C249.74 143.347 250.692 143.101 251.303 142.609C251.923 142.116 252.232 141.456 252.232 140.626C252.232 139.879 251.95 139.245 251.385 138.726C250.82 138.206 249.653 137.591 247.885 136.88C246.062 136.142 244.777 135.299 244.029 134.351C243.282 133.403 242.908 132.264 242.908 130.933C242.908 129.265 243.501 127.952 244.686 126.995C245.87 126.038 247.461 125.56 249.457 125.56C251.371 125.56 253.276 125.979 255.172 126.818L254.133 129.484C252.355 128.736 250.77 128.363 249.375 128.363C248.318 128.363 247.516 128.595 246.969 129.06C246.422 129.516 246.148 130.122 246.148 130.878C246.148 131.398 246.258 131.844 246.477 132.218C246.695 132.583 247.055 132.929 247.557 133.257C248.058 133.585 248.96 134.018 250.264 134.556C251.731 135.167 252.807 135.736 253.49 136.265C254.174 136.794 254.675 137.391 254.994 138.056C255.313 138.721 255.473 139.505 255.473 140.407ZM266.246 145.835H262.979V128.65H257.1V125.847H272.125V128.65H266.246V145.835ZM275.201 145.835V125.847H278.469V145.835H275.201ZM292.264 128.363C290.386 128.363 288.91 129.028 287.834 130.359C286.758 131.689 286.221 133.526 286.221 135.868C286.221 138.32 286.736 140.175 287.766 141.433C288.805 142.691 290.304 143.32 292.264 143.32C293.111 143.32 293.932 143.238 294.725 143.073C295.518 142.9 296.342 142.682 297.199 142.417V145.22C295.632 145.812 293.854 146.109 291.867 146.109C288.941 146.109 286.695 145.224 285.127 143.456C283.559 141.679 282.775 139.141 282.775 135.841C282.775 133.763 283.154 131.945 283.91 130.386C284.676 128.827 285.779 127.633 287.219 126.804C288.659 125.974 290.35 125.56 292.291 125.56C294.333 125.56 296.219 125.988 297.951 126.845L296.775 129.566C296.101 129.247 295.385 128.969 294.629 128.732C293.882 128.486 293.093 128.363 292.264 128.363ZM313.031 140.407C313.031 142.185 312.389 143.579 311.104 144.591C309.818 145.603 308.046 146.109 305.785 146.109C303.525 146.109 301.674 145.758 300.234 145.056V141.966C301.146 142.394 302.112 142.732 303.133 142.978C304.163 143.224 305.12 143.347 306.004 143.347C307.298 143.347 308.251 143.101 308.861 142.609C309.481 142.116 309.791 141.456 309.791 140.626C309.791 139.879 309.508 139.245 308.943 138.726C308.378 138.206 307.212 137.591 305.443 136.88C303.62 136.142 302.335 135.299 301.588 134.351C300.84 133.403 300.467 132.264 300.467 130.933C300.467 129.265 301.059 127.952 302.244 126.995C303.429 126.038 305.02 125.56 307.016 125.56C308.93 125.56 310.835 125.979 312.73 126.818L311.691 129.484C309.914 128.736 308.328 128.363 306.934 128.363C305.876 128.363 305.074 128.595 304.527 129.06C303.98 129.516 303.707 130.122 303.707 130.878C303.707 131.398 303.816 131.844 304.035 132.218C304.254 132.583 304.614 132.929 305.115 133.257C305.617 133.585 306.519 134.018 307.822 134.556C309.29 135.167 310.365 135.736 311.049 136.265C311.732 136.794 312.234 137.391 312.553 138.056C312.872 138.721 313.031 139.505 313.031 140.407ZM10.6641 183.835H7.45117V170.929C7.45117 169.389 7.48763 168.167 7.56055 167.265C7.35091 167.484 7.09115 167.725 6.78125 167.989C6.48047 168.254 5.45964 169.092 3.71875 170.505L2.10547 168.468L7.98438 163.847H10.6641V183.835ZM24.0078 171.353C26.0221 171.353 27.6172 171.886 28.793 172.952C29.9688 174.019 30.5566 175.473 30.5566 177.314C30.5566 179.447 29.8867 181.114 28.5469 182.318C27.2161 183.512 25.3203 184.109 22.8594 184.109C20.6263 184.109 18.8717 183.749 17.5957 183.029V180.116C18.334 180.536 19.1816 180.859 20.1387 181.087C21.0957 181.315 21.9844 181.429 22.8047 181.429C24.2539 181.429 25.3568 181.105 26.1133 180.458C26.8698 179.811 27.248 178.863 27.248 177.614C27.248 175.226 25.7259 174.032 22.6816 174.032C22.2533 174.032 21.7246 174.078 21.0957 174.169C20.4668 174.251 19.9154 174.347 19.4414 174.456L18.0059 173.609L18.7715 163.847H29.1621V166.704H21.6016L21.1504 171.654C21.4694 171.599 21.8568 171.535 22.3125 171.462C22.7773 171.389 23.3424 171.353 24.0078 171.353ZM32.9766 177.697V174.962H40.0039V177.697H32.9766ZM51.6797 183.835H48.4668V170.929C48.4668 169.389 48.5033 168.167 48.5762 167.265C48.3665 167.484 48.1068 167.725 47.7969 167.989C47.4961 168.254 46.4753 169.092 44.7344 170.505L43.1211 168.468L49 163.847H51.6797V183.835ZM64.9961 163.587C66.8919 163.587 68.3913 164.025 69.4941 164.9C70.597 165.766 71.1484 166.928 71.1484 168.386C71.1484 170.437 69.918 172.068 67.457 173.28C69.0247 174.064 70.1367 174.889 70.793 175.755C71.4583 176.621 71.791 177.587 71.791 178.654C71.791 180.303 71.1849 181.625 69.9727 182.618C68.7604 183.612 67.1198 184.109 65.0508 184.109C62.8815 184.109 61.1999 183.644 60.0059 182.714C58.8118 181.784 58.2148 180.467 58.2148 178.763C58.2148 177.651 58.5247 176.653 59.1445 175.769C59.7734 174.876 60.7988 174.083 62.2207 173.39C60.9993 172.661 60.1289 171.891 59.6094 171.079C59.0898 170.268 58.8301 169.357 58.8301 168.345C58.8301 166.896 59.3997 165.743 60.5391 164.886C61.6784 164.02 63.1641 163.587 64.9961 163.587ZM61.291 178.654C61.291 179.601 61.6237 180.34 62.2891 180.868C62.9544 181.388 63.8568 181.648 64.9961 181.648C66.1719 181.648 67.0833 181.379 67.7305 180.841C68.3867 180.294 68.7148 179.556 68.7148 178.626C68.7148 177.888 68.4141 177.213 67.8125 176.603C67.2109 175.992 66.2995 175.427 65.0781 174.907L64.6816 174.73C63.4785 175.258 62.6126 175.842 62.084 176.48C61.5553 177.109 61.291 177.833 61.291 178.654ZM64.9688 166.062C64.0573 166.062 63.3236 166.29 62.7676 166.745C62.2116 167.192 61.9336 167.803 61.9336 168.577C61.9336 169.051 62.0339 169.475 62.2344 169.849C62.4349 170.223 62.7266 170.564 63.1094 170.874C63.4922 171.175 64.1393 171.54 65.0508 171.968C66.1445 171.485 66.9147 170.979 67.3613 170.45C67.8171 169.913 68.0449 169.288 68.0449 168.577C68.0449 167.803 67.7624 167.192 67.1973 166.745C66.6413 166.29 65.8984 166.062 64.9688 166.062ZM94.4453 178.407C94.4453 180.185 93.8027 181.579 92.5176 182.591C91.2324 183.603 89.4596 184.109 87.1992 184.109C84.9388 184.109 83.0885 183.758 81.6484 183.056V179.966C82.5599 180.394 83.526 180.732 84.5469 180.978C85.5768 181.224 86.5339 181.347 87.418 181.347C88.7122 181.347 89.6647 181.101 90.2754 180.609C90.8952 180.116 91.2051 179.456 91.2051 178.626C91.2051 177.879 90.9225 177.245 90.3574 176.726C89.7923 176.206 88.6257 175.591 86.8574 174.88C85.0345 174.142 83.7493 173.299 83.002 172.351C82.2546 171.403 81.8809 170.264 81.8809 168.933C81.8809 167.265 82.4733 165.952 83.6582 164.995C84.8431 164.038 86.4336 163.56 88.4297 163.56C90.3438 163.56 92.2487 163.979 94.1445 164.818L93.1055 167.484C91.3281 166.736 89.7422 166.363 88.3477 166.363C87.2904 166.363 86.4883 166.595 85.9414 167.06C85.3945 167.516 85.1211 168.122 85.1211 168.878C85.1211 169.398 85.2305 169.844 85.4492 170.218C85.668 170.583 86.028 170.929 86.5293 171.257C87.0306 171.585 87.9329 172.018 89.2363 172.556C90.7038 173.167 91.7793 173.736 92.4629 174.265C93.1465 174.794 93.6478 175.391 93.9668 176.056C94.2858 176.721 94.4453 177.505 94.4453 178.407ZM109.621 183.835H98.3145V163.847H109.621V166.609H101.582V172.05H109.115V174.784H101.582V181.06H109.621V183.835ZM127.189 169.89C127.189 171.977 126.506 173.577 125.139 174.689C123.771 175.801 121.826 176.357 119.301 176.357H117.223V183.835H113.955V163.847H119.711C122.208 163.847 124.077 164.357 125.316 165.378C126.565 166.399 127.189 167.903 127.189 169.89ZM117.223 173.609H118.959C120.636 173.609 121.867 173.317 122.65 172.734C123.434 172.15 123.826 171.239 123.826 169.999C123.826 168.851 123.475 167.994 122.773 167.429C122.072 166.864 120.978 166.581 119.492 166.581H117.223V173.609ZM138.086 183.835H134.818V166.65H128.939V163.847H143.965V166.65H138.086V183.835ZM158.348 183.835H147.041V163.847H158.348V166.609H150.309V172.05H157.842V174.784H150.309V181.06H158.348V183.835ZM171.322 183.835L165.525 167.142H165.416C165.571 169.621 165.648 171.945 165.648 174.114V183.835H162.682V163.847H167.289L172.84 179.747H172.922L178.637 163.847H183.258V183.835H180.113V173.95C180.113 172.957 180.136 171.663 180.182 170.068C180.236 168.473 180.282 167.506 180.318 167.169H180.209L174.207 183.835H171.322ZM188.521 163.847H194.455C197.208 163.847 199.195 164.248 200.416 165.05C201.646 165.852 202.262 167.119 202.262 168.851C202.262 170.017 201.961 170.988 201.359 171.763C200.758 172.538 199.892 173.025 198.762 173.226V173.363C200.165 173.627 201.195 174.151 201.852 174.935C202.517 175.71 202.85 176.762 202.85 178.093C202.85 179.889 202.221 181.297 200.963 182.318C199.714 183.329 197.973 183.835 195.74 183.835H188.521V163.847ZM191.789 172.105H194.934C196.301 172.105 197.299 171.891 197.928 171.462C198.557 171.025 198.871 170.286 198.871 169.247C198.871 168.308 198.529 167.629 197.846 167.21C197.171 166.791 196.096 166.581 194.619 166.581H191.789V172.105ZM191.789 174.757V181.087H195.262C196.629 181.087 197.659 180.827 198.352 180.308C199.053 179.779 199.404 178.95 199.404 177.82C199.404 176.78 199.049 176.01 198.338 175.509C197.627 175.008 196.547 174.757 195.098 174.757H191.789ZM218.312 183.835H207.006V163.847H218.312V166.609H210.273V172.05H217.807V174.784H210.273V181.06H218.312V183.835ZM225.914 173.144H228.184C229.706 173.144 230.809 172.861 231.492 172.296C232.176 171.731 232.518 170.892 232.518 169.78C232.518 168.65 232.148 167.839 231.41 167.347C230.672 166.855 229.56 166.609 228.074 166.609H225.914V173.144ZM225.914 175.851V183.835H222.646V163.847H228.293C230.872 163.847 232.782 164.33 234.021 165.296C235.261 166.262 235.881 167.721 235.881 169.671C235.881 172.159 234.587 173.932 231.998 174.989L237.645 183.835H233.926L229.141 175.851H225.914ZM259.971 183.835H246.422V181.402L251.576 176.22C253.098 174.661 254.105 173.558 254.598 172.911C255.099 172.255 255.464 171.64 255.691 171.066C255.919 170.491 256.033 169.876 256.033 169.22C256.033 168.318 255.76 167.607 255.213 167.087C254.675 166.568 253.928 166.308 252.971 166.308C252.205 166.308 251.462 166.449 250.742 166.732C250.031 167.014 249.206 167.525 248.268 168.263L246.531 166.144C247.643 165.205 248.723 164.54 249.771 164.148C250.82 163.756 251.936 163.56 253.121 163.56C254.98 163.56 256.471 164.047 257.592 165.023C258.713 165.989 259.273 167.292 259.273 168.933C259.273 169.835 259.109 170.692 258.781 171.503C258.462 172.314 257.965 173.153 257.291 174.019C256.626 174.876 255.514 176.038 253.955 177.505L250.482 180.868V181.005H259.971V183.835ZM275.967 173.841C275.967 177.314 275.406 179.893 274.285 181.579C273.173 183.266 271.469 184.109 269.172 184.109C266.948 184.109 265.262 183.238 264.113 181.497C262.965 179.756 262.391 177.204 262.391 173.841C262.391 170.314 262.947 167.716 264.059 166.048C265.18 164.371 266.884 163.532 269.172 163.532C271.405 163.532 273.096 164.407 274.244 166.157C275.393 167.907 275.967 170.469 275.967 173.841ZM265.645 173.841C265.645 176.566 265.923 178.512 266.479 179.679C267.044 180.846 267.941 181.429 269.172 181.429C270.402 181.429 271.3 180.836 271.865 179.652C272.439 178.467 272.727 176.53 272.727 173.841C272.727 171.161 272.439 169.224 271.865 168.03C271.3 166.827 270.402 166.226 269.172 166.226C267.941 166.226 267.044 166.814 266.479 167.989C265.923 169.165 265.645 171.116 265.645 173.841ZM291.963 183.835H278.414V181.402L283.568 176.22C285.09 174.661 286.098 173.558 286.59 172.911C287.091 172.255 287.456 171.64 287.684 171.066C287.911 170.491 288.025 169.876 288.025 169.22C288.025 168.318 287.752 167.607 287.205 167.087C286.667 166.568 285.92 166.308 284.963 166.308C284.197 166.308 283.454 166.449 282.734 166.732C282.023 167.014 281.199 167.525 280.26 168.263L278.523 166.144C279.635 165.205 280.715 164.54 281.764 164.148C282.812 163.756 283.928 163.56 285.113 163.56C286.973 163.56 288.463 164.047 289.584 165.023C290.705 165.989 291.266 167.292 291.266 168.933C291.266 169.835 291.102 170.692 290.773 171.503C290.454 172.314 289.958 173.153 289.283 174.019C288.618 174.876 287.506 176.038 285.947 177.505L282.475 180.868V181.005H291.963V183.835ZM307.959 183.835H294.41V181.402L299.564 176.22C301.087 174.661 302.094 173.558 302.586 172.911C303.087 172.255 303.452 171.64 303.68 171.066C303.908 170.491 304.021 169.876 304.021 169.22C304.021 168.318 303.748 167.607 303.201 167.087C302.663 166.568 301.916 166.308 300.959 166.308C300.193 166.308 299.451 166.449 298.73 166.732C298.02 167.014 297.195 167.525 296.256 168.263L294.52 166.144C295.632 165.205 296.712 164.54 297.76 164.148C298.808 163.756 299.924 163.56 301.109 163.56C302.969 163.56 304.459 164.047 305.58 165.023C306.701 165.989 307.262 167.292 307.262 168.933C307.262 169.835 307.098 170.692 306.77 171.503C306.451 172.314 305.954 173.153 305.279 174.019C304.614 174.876 303.502 176.038 301.943 177.505L298.471 180.868V181.005H307.959V183.835ZM18.3066 201.847V214.78C18.3066 216.257 17.9876 217.551 17.3496 218.663C16.7207 219.766 15.8047 220.618 14.6016 221.22C13.4076 221.812 11.9766 222.109 10.3086 222.109C7.82943 222.109 5.90169 221.452 4.52539 220.14C3.14909 218.827 2.46094 217.023 2.46094 214.726V201.847H5.74219V214.493C5.74219 216.143 6.125 217.36 6.89062 218.144C7.65625 218.928 8.83203 219.32 10.418 219.32C13.4987 219.32 15.0391 217.702 15.0391 214.466V201.847H18.3066ZM40.0723 221.835H36.0664L26.2363 205.907H26.127L26.1953 206.796C26.3229 208.491 26.3867 210.041 26.3867 211.445V221.835H23.4199V201.847H27.3848L37.1875 217.693H37.2695C37.2513 217.483 37.2148 216.722 37.1602 215.409C37.1055 214.088 37.0781 213.058 37.0781 212.32V201.847H40.0723V221.835ZM45.3496 221.835V201.847H48.6172V221.835H45.3496ZM65.2969 201.847H68.6875L61.6875 221.835H58.2422L51.2695 201.847H54.6328L58.8027 214.275C59.0215 214.867 59.2539 215.633 59.5 216.572C59.7461 217.501 59.9056 218.194 59.9785 218.65C60.097 217.957 60.2793 217.155 60.5254 216.243C60.7715 215.332 60.972 214.657 61.127 214.22L65.2969 201.847ZM82.6328 221.835H71.3262V201.847H82.6328V204.609H74.5938V210.05H82.127V212.784H74.5938V219.06H82.6328V221.835ZM90.2344 211.144H92.5039C94.026 211.144 95.1289 210.861 95.8125 210.296C96.4961 209.731 96.8379 208.892 96.8379 207.78C96.8379 206.65 96.4688 205.839 95.7305 205.347C94.9922 204.855 93.8802 204.609 92.3945 204.609H90.2344V211.144ZM90.2344 213.851V221.835H86.9668V201.847H92.6133C95.1927 201.847 97.1022 202.33 98.3418 203.296C99.5814 204.262 100.201 205.721 100.201 207.671C100.201 210.159 98.9069 211.932 96.3184 212.989L101.965 221.835H98.2461L93.4609 213.851H90.2344ZM116.402 216.407C116.402 218.185 115.76 219.579 114.475 220.591C113.189 221.603 111.417 222.109 109.156 222.109C106.896 222.109 105.046 221.758 103.605 221.056V217.966C104.517 218.394 105.483 218.732 106.504 218.978C107.534 219.224 108.491 219.347 109.375 219.347C110.669 219.347 111.622 219.101 112.232 218.609C112.852 218.116 113.162 217.456 113.162 216.626C113.162 215.879 112.88 215.245 112.314 214.726C111.749 214.206 110.583 213.591 108.814 212.88C106.992 212.142 105.706 211.299 104.959 210.351C104.212 209.403 103.838 208.264 103.838 206.933C103.838 205.265 104.43 203.952 105.615 202.995C106.8 202.038 108.391 201.56 110.387 201.56C112.301 201.56 114.206 201.979 116.102 202.818L115.062 205.484C113.285 204.736 111.699 204.363 110.305 204.363C109.247 204.363 108.445 204.595 107.898 205.06C107.352 205.516 107.078 206.122 107.078 206.878C107.078 207.398 107.188 207.844 107.406 208.218C107.625 208.583 107.985 208.929 108.486 209.257C108.988 209.585 109.89 210.018 111.193 210.556C112.661 211.167 113.736 211.736 114.42 212.265C115.104 212.794 115.605 213.391 115.924 214.056C116.243 214.721 116.402 215.505 116.402 216.407ZM120.271 221.835V201.847H123.539V221.835H120.271ZM135.734 221.835H132.467V204.65H126.588V201.847H141.613V204.65H135.734V221.835ZM150.336 210.966L155.066 201.847H158.621L151.963 214.083V221.835H148.682V214.193L142.051 201.847H145.605L150.336 210.966ZM186.279 211.814C186.279 215.068 185.464 217.597 183.832 219.402C182.21 221.206 179.908 222.109 176.928 222.109C173.911 222.109 171.591 221.215 169.969 219.429C168.355 217.633 167.549 215.086 167.549 211.786C167.549 208.487 168.36 205.953 169.982 204.185C171.614 202.417 173.938 201.532 176.955 201.532C179.926 201.532 182.223 202.43 183.846 204.226C185.468 206.021 186.279 208.551 186.279 211.814ZM171.021 211.814C171.021 214.275 171.518 216.143 172.512 217.419C173.505 218.686 174.977 219.32 176.928 219.32C178.869 219.32 180.332 218.691 181.316 217.433C182.31 216.175 182.807 214.302 182.807 211.814C182.807 209.362 182.314 207.502 181.33 206.236C180.355 204.969 178.896 204.335 176.955 204.335C174.995 204.335 173.514 204.969 172.512 206.236C171.518 207.502 171.021 209.362 171.021 211.814ZM193.812 221.835H190.572V201.847H201.852V204.609H193.812V210.857H201.346V213.632H193.812V221.835ZM212.748 201.847H218.682C221.434 201.847 223.421 202.248 224.643 203.05C225.873 203.852 226.488 205.119 226.488 206.851C226.488 208.017 226.188 208.988 225.586 209.763C224.984 210.538 224.118 211.025 222.988 211.226V211.363C224.392 211.627 225.422 212.151 226.078 212.935C226.743 213.71 227.076 214.762 227.076 216.093C227.076 217.889 226.447 219.297 225.189 220.318C223.941 221.329 222.2 221.835 219.967 221.835H212.748V201.847ZM216.016 210.105H219.16C220.527 210.105 221.525 209.891 222.154 209.462C222.783 209.025 223.098 208.286 223.098 207.247C223.098 206.308 222.756 205.629 222.072 205.21C221.398 204.791 220.322 204.581 218.846 204.581H216.016V210.105ZM216.016 212.757V219.087H219.488C220.855 219.087 221.885 218.827 222.578 218.308C223.28 217.779 223.631 216.95 223.631 215.82C223.631 214.78 223.275 214.01 222.564 213.509C221.854 213.008 220.773 212.757 219.324 212.757H216.016ZM242.539 221.835H231.232V201.847H242.539V204.609H234.5V210.05H242.033V212.784H234.5V219.06H242.539V221.835ZM246.873 221.835V201.847H250.141V219.032H258.604V221.835H246.873ZM270.225 210.993H277.58V221.029C276.377 221.42 275.219 221.698 274.107 221.863C273.005 222.027 271.811 222.109 270.525 222.109C267.499 222.109 265.166 221.215 263.525 219.429C261.885 217.633 261.064 215.104 261.064 211.841C261.064 208.624 261.99 206.108 263.84 204.294C265.69 202.471 268.238 201.56 271.482 201.56C273.57 201.56 275.548 201.961 277.416 202.763L276.268 205.484C274.645 204.736 273.023 204.363 271.4 204.363C269.268 204.363 267.581 205.032 266.342 206.372C265.102 207.712 264.482 209.544 264.482 211.868C264.482 214.311 265.038 216.17 266.15 217.447C267.271 218.713 268.88 219.347 270.977 219.347C272.034 219.347 273.164 219.215 274.367 218.95V213.796H270.225V210.993ZM285.66 211.144H287.93C289.452 211.144 290.555 210.861 291.238 210.296C291.922 209.731 292.264 208.892 292.264 207.78C292.264 206.65 291.895 205.839 291.156 205.347C290.418 204.855 289.306 204.609 287.82 204.609H285.66V211.144ZM285.66 213.851V221.835H282.393V201.847H288.039C290.618 201.847 292.528 202.33 293.768 203.296C295.007 204.262 295.627 205.721 295.627 207.671C295.627 210.159 294.333 211.932 291.744 212.989L297.391 221.835H293.672L288.887 213.851H285.66ZM312.703 221.835L310.707 216.284H303.064L301.109 221.835H297.664L305.143 201.765H308.697L316.176 221.835H312.703ZM309.846 213.468L307.973 208.027C307.836 207.662 307.645 207.088 307.398 206.304C307.161 205.52 306.997 204.946 306.906 204.581C306.66 205.702 306.3 206.928 305.826 208.259L304.021 213.468H309.846ZM335.07 211.65C335.07 214.949 334.154 217.474 332.322 219.224C330.49 220.965 327.852 221.835 324.406 221.835H318.814V201.847H324.994C328.175 201.847 330.65 202.704 332.418 204.417C334.186 206.131 335.07 208.542 335.07 211.65ZM331.625 211.759C331.625 206.974 329.387 204.581 324.912 204.581H322.082V219.087H324.406C329.219 219.087 331.625 216.644 331.625 211.759ZM350.684 221.835H339.377V201.847H350.684V204.609H342.645V210.05H350.178V212.784H342.645V219.06H350.684V221.835Z" fill="#6A6A6A"/>
</g>
<defs>
<clipPath id="clip0">
<rect width="479" height="230" fill="white"/>
</clipPath>
</defs>
</svg>
