<svg width="545" height="233" viewBox="0 0 545 233" fill="none" xmlns="http://www.w3.org/2000/svg">
<g clip-path="url(#clip0)">
<path d="M16.4064 74.0802C15.4997 74.0802 14.753 73.7868 14.1664 73.2002C13.5797 72.6135 13.2864 71.8668 13.2864 70.9602V14.7202C13.2864 13.8135 13.5797 13.0668 14.1664 12.4802C14.753 11.8935 15.4997 11.6002 16.4064 11.6002C17.313 11.6002 18.0597 11.8935 18.6464 12.4802C19.233 13.0668 19.5264 13.8135 19.5264 14.7202V70.9602C19.5264 71.8668 19.233 72.6135 18.6464 73.2002C18.0597 73.7868 17.313 74.0802 16.4064 74.0802ZM63.632 74.8802C59.312 74.8802 55.2587 74.0535 51.472 72.4002C47.7387 70.7468 44.432 68.4535 41.552 65.5202C38.7253 62.5335 36.512 59.1202 34.912 55.2802C33.312 51.3868 32.512 47.2268 32.512 42.8002C32.512 38.4268 33.2853 34.3202 34.832 30.4802C36.432 26.5868 38.6453 23.1735 41.472 20.2402C44.352 17.3068 47.6587 15.0135 51.392 13.3602C55.1787 11.6535 59.2587 10.8002 63.632 10.8002C67.472 10.8002 70.9653 11.3602 74.112 12.4802C77.2587 13.6002 80.2987 15.3868 83.232 17.8402C83.712 18.2135 83.9787 18.6668 84.032 19.2002C84.1387 19.6802 84.0853 20.1602 83.872 20.6402C83.6587 21.0668 83.3387 21.3868 82.912 21.6002C82.8053 22.0268 82.5387 22.3468 82.112 22.5602C81.6853 22.7735 81.1787 22.8535 80.592 22.8002C80.0587 22.7468 79.5253 22.5068 78.992 22.0802C76.912 20.2668 74.6453 18.9335 72.192 18.0802C69.7387 17.1735 66.8853 16.7202 63.632 16.7202C60.1653 16.7202 56.912 17.4135 53.872 18.8002C50.8853 20.1868 48.2453 22.0802 45.952 24.4802C43.6587 26.8802 41.8453 29.6535 40.512 32.8002C39.232 35.9468 38.592 39.2802 38.592 42.8002C38.592 46.4268 39.232 49.8135 40.512 52.9602C41.8453 56.1068 43.6587 58.8802 45.952 61.2802C48.2453 63.6802 50.8853 65.5735 53.872 66.9602C56.912 68.2935 60.1653 68.9602 63.632 68.9602C66.5653 68.9602 69.3387 68.4802 71.952 67.5202C74.5653 66.5602 77.0453 65.1735 79.392 63.3602C80.032 62.8268 80.6987 62.6135 81.392 62.7202C82.1387 62.8268 82.7787 63.1468 83.312 63.6802C83.8453 64.2135 84.112 64.9068 84.112 65.7602C84.112 66.1868 84.032 66.5868 83.872 66.9602C83.7653 67.2802 83.552 67.6268 83.232 68.0002C80.512 70.5068 77.472 72.2935 74.112 73.3602C70.752 74.3735 67.2587 74.8802 63.632 74.8802ZM125.351 74.8802C121.031 74.8802 116.977 74.0535 113.191 72.4002C109.457 70.7468 106.151 68.4535 103.271 65.5202C100.444 62.5335 98.2307 59.1202 96.6307 55.2802C95.0307 51.3868 94.2307 47.2268 94.2307 42.8002C94.2307 38.4268 95.0041 34.3202 96.5507 30.4802C98.1507 26.5868 100.364 23.1735 103.191 20.2402C106.071 17.3068 109.377 15.0135 113.111 13.3602C116.897 11.6535 120.977 10.8002 125.351 10.8002C129.191 10.8002 132.684 11.3602 135.831 12.4802C138.977 13.6002 142.017 15.3868 144.951 17.8402C145.431 18.2135 145.697 18.6668 145.751 19.2002C145.857 19.6802 145.804 20.1602 145.591 20.6402C145.377 21.0668 145.057 21.3868 144.631 21.6002C144.524 22.0268 144.257 22.3468 143.831 22.5602C143.404 22.7735 142.897 22.8535 142.311 22.8002C141.777 22.7468 141.244 22.5068 140.711 22.0802C138.631 20.2668 136.364 18.9335 133.911 18.0802C131.457 17.1735 128.604 16.7202 125.351 16.7202C121.884 16.7202 118.631 17.4135 115.591 18.8002C112.604 20.1868 109.964 22.0802 107.671 24.4802C105.377 26.8802 103.564 29.6535 102.231 32.8002C100.951 35.9468 100.311 39.2802 100.311 42.8002C100.311 46.4268 100.951 49.8135 102.231 52.9602C103.564 56.1068 105.377 58.8802 107.671 61.2802C109.964 63.6802 112.604 65.5735 115.591 66.9602C118.631 68.2935 121.884 68.9602 125.351 68.9602C128.284 68.9602 131.057 68.4802 133.671 67.5202C136.284 66.5602 138.764 65.1735 141.111 63.3602C141.751 62.8268 142.417 62.6135 143.111 62.7202C143.857 62.8268 144.497 63.1468 145.031 63.6802C145.564 64.2135 145.831 64.9068 145.831 65.7602C145.831 66.1868 145.777 66.5868 145.671 66.9602C145.564 67.2802 145.324 67.6268 144.951 68.0002C142.231 70.5068 139.191 72.2935 135.831 73.3602C132.471 74.3735 128.977 74.8802 125.351 74.8802ZM145.831 65.7602L139.751 64.4802V48.4002H127.271C126.364 48.4002 125.617 48.1335 125.031 47.6002C124.444 47.0668 124.151 46.4002 124.151 45.6002C124.151 44.8002 124.444 44.1602 125.031 43.6802C125.617 43.1468 126.364 42.8802 127.271 42.8802H142.711C143.617 42.8802 144.364 43.1735 144.951 43.7602C145.537 44.2935 145.831 45.0135 145.831 45.9202V65.7602ZM162.109 74.0802C161.256 74.0802 160.509 73.7868 159.869 73.2002C159.283 72.6135 158.989 71.8668 158.989 70.9602V14.7202C158.989 13.8668 159.283 13.1468 159.869 12.5602C160.509 11.9202 161.256 11.6002 162.109 11.6002C162.963 11.6002 163.683 11.9202 164.269 12.5602C164.909 13.1468 165.229 13.8668 165.229 14.7202V68.1602H196.509C197.363 68.1602 198.083 68.4535 198.669 69.0402C199.309 69.5735 199.629 70.2668 199.629 71.1202C199.629 71.9735 199.309 72.6935 198.669 73.2802C198.083 73.8135 197.363 74.0802 196.509 74.0802H162.109ZM220.894 74.0802C219.828 74.0802 218.894 73.6802 218.094 72.8802C217.294 72.0802 216.894 71.1202 216.894 70.0002V21.2002L211.054 23.6802C210.148 24.0535 209.294 24.2402 208.494 24.2402C207.321 24.2402 206.334 23.8668 205.534 23.1202C204.788 22.3735 204.414 21.4135 204.414 20.2402C204.414 19.3868 204.628 18.6135 205.054 17.9202C205.481 17.2268 206.148 16.7202 207.054 16.4002L219.534 11.9202C219.801 11.8135 220.068 11.7335 220.334 11.6802C220.601 11.6268 220.841 11.6002 221.054 11.6002C222.281 11.6002 223.241 12.0002 223.934 12.8002C224.681 13.5468 225.054 14.5335 225.054 15.7602V70.0002C225.054 71.1202 224.654 72.0802 223.854 72.8802C223.054 73.6802 222.068 74.0802 220.894 74.0802ZM258.541 74.0802C254.701 74.0802 251.234 73.2002 248.141 71.4402C245.101 69.6268 242.674 67.1735 240.861 64.0802C239.101 60.9868 238.221 57.5202 238.221 53.6802C238.221 52.5068 238.594 51.5468 239.341 50.8002C240.087 50.0002 241.047 49.6002 242.221 49.6002C243.394 49.6002 244.381 50.0002 245.181 50.8002C245.981 51.5468 246.381 52.5068 246.381 53.6802C246.381 55.9735 246.914 58.0535 247.981 59.9202C249.047 61.7868 250.487 63.2535 252.301 64.3202C254.167 65.3868 256.247 65.9202 258.541 65.9202C260.887 65.9202 262.967 65.3868 264.781 64.3202C266.647 63.2535 268.114 61.7868 269.181 59.9202C270.247 58.0535 270.781 55.9735 270.781 53.6802C270.781 51.3335 270.247 49.2535 269.181 47.4402C268.114 45.5735 266.647 44.1068 264.781 43.0402C262.967 41.9735 260.887 41.4402 258.541 41.4402H245.181C244.007 41.4402 243.047 41.0668 242.301 40.3202C241.554 39.5202 241.181 38.5335 241.181 37.3602V15.7602C241.181 14.5868 241.554 13.6002 242.301 12.8002C243.047 12.0002 244.007 11.6002 245.181 11.6002H271.901C273.021 11.6002 273.981 12.0268 274.781 12.8802C275.581 13.6802 275.981 14.6402 275.981 15.7602C275.981 16.8268 275.581 17.7602 274.781 18.5602C274.034 19.3602 273.074 19.7602 271.901 19.7602H249.261V33.2802H258.541C262.434 33.2802 265.901 34.1868 268.941 36.0002C272.034 37.7602 274.461 40.1868 276.221 43.2802C278.034 46.3202 278.941 49.7868 278.941 53.6802C278.941 57.5202 278.034 60.9868 276.221 64.0802C274.461 67.1735 272.034 69.6268 268.941 71.4402C265.901 73.2002 262.434 74.0802 258.541 74.0802Z" fill="#3ABEAB"/>
<path d="M12.0344 119.915C11.661 119.915 11.3344 119.775 11.0544 119.495C10.7744 119.215 10.6344 118.879 10.6344 118.487V101.407L8.59038 102.275C8.27304 102.406 7.97438 102.471 7.69438 102.471C7.28371 102.471 6.93838 102.341 6.65838 102.079C6.39704 101.818 6.26638 101.482 6.26638 101.071C6.26638 100.773 6.34104 100.502 6.49038 100.259C6.63971 100.017 6.87304 99.8393 7.19038 99.7273L11.5584 98.1593C11.6517 98.122 11.745 98.094 11.8384 98.0753C11.9317 98.0566 12.0157 98.0473 12.0904 98.0473C12.5197 98.0473 12.8557 98.1873 13.0984 98.4673C13.3597 98.7286 13.4904 99.074 13.4904 99.5033V118.487C13.4904 118.879 13.3504 119.215 13.0704 119.495C12.7904 119.775 12.445 119.915 12.0344 119.915ZM25.2106 119.915C23.8666 119.915 22.6532 119.607 21.5706 118.991C20.5066 118.357 19.6572 117.498 19.0226 116.415C18.4066 115.333 18.0986 114.119 18.0986 112.775C18.0986 112.365 18.2292 112.029 18.4906 111.767C18.7519 111.487 19.0879 111.347 19.4986 111.347C19.9092 111.347 20.2546 111.487 20.5346 111.767C20.8146 112.029 20.9546 112.365 20.9546 112.775C20.9546 113.578 21.1412 114.306 21.5146 114.959C21.8879 115.613 22.3919 116.126 23.0266 116.499C23.6799 116.873 24.4079 117.059 25.2106 117.059C26.0319 117.059 26.7599 116.873 27.3946 116.499C28.0479 116.126 28.5612 115.613 28.9346 114.959C29.3079 114.306 29.4946 113.578 29.4946 112.775C29.4946 111.954 29.3079 111.226 28.9346 110.591C28.5612 109.938 28.0479 109.425 27.3946 109.051C26.7599 108.678 26.0319 108.491 25.2106 108.491H20.5346C20.1239 108.491 19.7879 108.361 19.5266 108.099C19.2652 107.819 19.1346 107.474 19.1346 107.063V99.5033C19.1346 99.0926 19.2652 98.7473 19.5266 98.4673C19.7879 98.1873 20.1239 98.0473 20.5346 98.0473H29.8866C30.2786 98.0473 30.6146 98.1966 30.8946 98.4953C31.1746 98.7753 31.3146 99.1113 31.3146 99.5033C31.3146 99.8766 31.1746 100.203 30.8946 100.483C30.6332 100.763 30.2972 100.903 29.8866 100.903H21.9626V105.635H25.2106C26.5732 105.635 27.7866 105.953 28.8506 106.587C29.9332 107.203 30.7826 108.053 31.3986 109.135C32.0332 110.199 32.3506 111.413 32.3506 112.775C32.3506 114.119 32.0332 115.333 31.3986 116.415C30.7826 117.498 29.9332 118.357 28.8506 118.991C27.7866 119.607 26.5732 119.915 25.2106 119.915ZM41.9799 119.915C41.0466 119.915 40.2066 119.682 39.4599 119.215C38.7133 118.73 38.1253 118.077 37.6959 117.255C37.2666 116.434 37.0519 115.51 37.0519 114.483V107.567H35.7639C35.3719 107.567 35.0546 107.455 34.8119 107.231C34.5693 107.007 34.4479 106.727 34.4479 106.391C34.4479 106.018 34.5693 105.719 34.8119 105.495C35.0546 105.271 35.3719 105.159 35.7639 105.159H37.0519V101.127C37.0519 100.717 37.1826 100.381 37.4439 100.119C37.7053 99.858 38.0413 99.7273 38.4519 99.7273C38.8626 99.7273 39.1986 99.858 39.4599 100.119C39.7213 100.381 39.8519 100.717 39.8519 101.127V105.159H42.2319C42.6239 105.159 42.9413 105.271 43.1839 105.495C43.4266 105.719 43.5479 106.018 43.5479 106.391C43.5479 106.727 43.4266 107.007 43.1839 107.231C42.9413 107.455 42.6239 107.567 42.2319 107.567H39.8519V114.483C39.8519 115.23 40.0573 115.855 40.4679 116.359C40.8786 116.863 41.3826 117.115 41.9799 117.115H42.9319C43.2679 117.115 43.5479 117.246 43.7719 117.507C44.0146 117.769 44.1359 118.105 44.1359 118.515C44.1359 118.926 43.9773 119.262 43.6599 119.523C43.3613 119.785 42.9693 119.915 42.4839 119.915H41.9799ZM49.0742 119.943C48.6636 119.943 48.3182 119.813 48.0382 119.551C47.7769 119.271 47.6462 118.926 47.6462 118.515V106.027C47.6462 105.598 47.7769 105.253 48.0382 104.991C48.3182 104.73 48.6636 104.599 49.0742 104.599C49.5036 104.599 49.8489 104.73 50.1102 104.991C50.3716 105.253 50.5022 105.598 50.5022 106.027V106.335C51.0809 105.757 51.7809 105.299 52.6022 104.963C53.4236 104.627 54.3102 104.459 55.2622 104.459C56.5502 104.459 57.6982 104.739 58.7062 105.299C59.7329 105.841 60.5356 106.643 61.1142 107.707C61.7116 108.771 62.0102 110.078 62.0102 111.627V118.515C62.0102 118.926 61.8702 119.271 61.5902 119.551C61.3289 119.813 60.9929 119.943 60.5822 119.943C60.1716 119.943 59.8262 119.813 59.5462 119.551C59.2849 119.271 59.1542 118.926 59.1542 118.515V111.627C59.1542 110.041 58.7249 108.883 57.8662 108.155C57.0262 107.409 55.9716 107.035 54.7022 107.035C53.9182 107.035 53.2089 107.194 52.5742 107.511C51.9396 107.829 51.4356 108.258 51.0622 108.799C50.6889 109.322 50.5022 109.929 50.5022 110.619V118.515C50.5022 118.926 50.3716 119.271 50.1102 119.551C49.8489 119.813 49.5036 119.943 49.0742 119.943ZM49.0742 114.343C48.6636 114.343 48.3182 114.213 48.0382 113.951C47.7769 113.671 47.6462 113.326 47.6462 112.915V99.4753C47.6462 99.046 47.7769 98.7006 48.0382 98.4393C48.3182 98.178 48.6636 98.0473 49.0742 98.0473C49.5036 98.0473 49.8489 98.178 50.1102 98.4393C50.3716 98.7006 50.5022 99.046 50.5022 99.4753V112.915C50.5022 113.326 50.3716 113.671 50.1102 113.951C49.8489 114.213 49.5036 114.343 49.0742 114.343ZM76.6986 119.915C76.288 119.915 75.9426 119.775 75.6626 119.495C75.3826 119.215 75.2426 118.87 75.2426 118.459V99.5033C75.2426 99.074 75.3826 98.7286 75.6626 98.4673C75.9426 98.1873 76.288 98.0473 76.6986 98.0473C77.128 98.0473 77.4733 98.1873 77.7346 98.4673C78.0146 98.7286 78.1546 99.074 78.1546 99.5033V118.459C78.1546 118.87 78.0146 119.215 77.7346 119.495C77.4733 119.775 77.128 119.915 76.6986 119.915ZM85.1745 119.915C84.7639 119.915 84.4185 119.775 84.1385 119.495C83.8772 119.215 83.7465 118.87 83.7465 118.459V99.5033C83.7465 99.074 83.8772 98.7286 84.1385 98.4673C84.4185 98.1873 84.7639 98.0473 85.1745 98.0473C85.6225 98.0473 85.9959 98.2246 86.2945 98.5793L98.5025 114.819V99.5033C98.5025 99.074 98.6425 98.7286 98.9225 98.4673C99.2025 98.1873 99.5479 98.0473 99.9585 98.0473C100.388 98.0473 100.733 98.1873 100.995 98.4673C101.256 98.7286 101.387 99.074 101.387 99.5033V118.459C101.387 118.87 101.256 119.215 100.995 119.495C100.733 119.775 100.388 119.915 99.9585 119.915C99.7719 119.915 99.5665 119.878 99.3425 119.803C99.1372 119.71 98.9692 119.579 98.8385 119.411L86.6305 103.171V118.459C86.6305 118.87 86.4905 119.215 86.2105 119.495C85.9492 119.775 85.6039 119.915 85.1745 119.915ZM113.457 119.915C113.046 119.915 112.701 119.775 112.421 119.495C112.141 119.215 112.001 118.87 112.001 118.459V100.735H105.953C105.561 100.735 105.234 100.614 104.973 100.371C104.73 100.11 104.609 99.7833 104.609 99.3913C104.609 98.9993 104.73 98.682 104.973 98.4393C105.234 98.178 105.561 98.0473 105.953 98.0473H120.933C121.325 98.0473 121.642 98.178 121.885 98.4393C122.146 98.682 122.277 98.9993 122.277 99.3913C122.277 99.7833 122.146 100.11 121.885 100.371C121.642 100.614 121.325 100.735 120.933 100.735H114.913V118.459C114.913 118.87 114.773 119.215 114.493 119.495C114.213 119.775 113.867 119.915 113.457 119.915ZM126.956 119.915C126.546 119.915 126.2 119.775 125.92 119.495C125.64 119.215 125.5 118.87 125.5 118.459V99.5033C125.5 99.074 125.64 98.7286 125.92 98.4673C126.2 98.1873 126.546 98.0473 126.956 98.0473H139.612C140.042 98.0473 140.387 98.178 140.648 98.4393C140.91 98.682 141.04 99.0086 141.04 99.4193C141.04 99.8113 140.91 100.129 140.648 100.371C140.387 100.614 140.042 100.735 139.612 100.735H128.412V107.539H136.448C136.878 107.539 137.223 107.67 137.484 107.931C137.746 108.174 137.876 108.491 137.876 108.883C137.876 109.275 137.746 109.602 137.484 109.863C137.223 110.106 136.878 110.227 136.448 110.227H128.412V117.227H139.612C140.042 117.227 140.387 117.349 140.648 117.591C140.91 117.834 141.04 118.151 141.04 118.543C141.04 118.954 140.91 119.29 140.648 119.551C140.387 119.794 140.042 119.915 139.612 119.915H126.956ZM146.562 119.915C146.151 119.915 145.806 119.775 145.526 119.495C145.246 119.215 145.106 118.87 145.106 118.459V99.5033C145.106 99.074 145.246 98.7286 145.526 98.4673C145.806 98.1873 146.151 98.0473 146.562 98.0473H151.602C153.002 98.0473 154.243 98.346 155.326 98.9433C156.409 99.522 157.249 100.325 157.846 101.351C158.462 102.378 158.77 103.573 158.77 104.935C158.77 106.279 158.434 107.465 157.762 108.491C157.09 109.499 156.175 110.265 155.018 110.787L159.302 117.675C159.638 118.217 159.685 118.73 159.442 119.215C159.199 119.682 158.779 119.915 158.182 119.915C157.641 119.915 157.221 119.682 156.922 119.215L152.106 111.487C151.938 111.487 151.77 111.487 151.602 111.487H148.018V118.459C148.018 118.87 147.878 119.215 147.598 119.495C147.337 119.775 146.991 119.915 146.562 119.915ZM148.018 108.799H151.602C152.871 108.799 153.917 108.445 154.738 107.735C155.559 107.007 155.97 106.074 155.97 104.935C155.97 103.703 155.559 102.695 154.738 101.911C153.917 101.127 152.871 100.735 151.602 100.735H148.018V108.799ZM164.225 119.915C163.815 119.915 163.469 119.775 163.189 119.495C162.928 119.215 162.797 118.87 162.797 118.459V99.5033C162.797 99.074 162.928 98.7286 163.189 98.4673C163.469 98.1873 163.815 98.0473 164.225 98.0473C164.673 98.0473 165.047 98.2246 165.345 98.5793L177.553 114.819V99.5033C177.553 99.074 177.693 98.7286 177.973 98.4673C178.253 98.1873 178.599 98.0473 179.009 98.0473C179.439 98.0473 179.784 98.1873 180.045 98.4673C180.307 98.7286 180.437 99.074 180.437 99.5033V118.459C180.437 118.87 180.307 119.215 180.045 119.495C179.784 119.775 179.439 119.915 179.009 119.915C178.823 119.915 178.617 119.878 178.393 119.803C178.188 119.71 178.02 119.579 177.889 119.411L165.681 103.171V118.459C165.681 118.87 165.541 119.215 165.261 119.495C165 119.775 164.655 119.915 164.225 119.915ZM185.172 119.915C184.649 119.915 184.248 119.691 183.968 119.243C183.688 118.795 183.66 118.319 183.884 117.815L191.752 99.0273C192.032 98.374 192.489 98.0473 193.124 98.0473C193.796 98.0473 194.253 98.374 194.496 99.0273L202.392 117.871C202.597 118.394 202.56 118.87 202.28 119.299C202.018 119.71 201.617 119.915 201.076 119.915C200.796 119.915 200.525 119.841 200.264 119.691C200.021 119.523 199.844 119.299 199.732 119.019L198.164 115.099H188.112L186.516 119.019C186.385 119.318 186.189 119.542 185.928 119.691C185.685 119.841 185.433 119.915 185.172 119.915ZM189.092 112.691H197.184L193.18 102.723L189.092 112.691ZM209.953 119.915C209.542 119.915 209.197 119.775 208.917 119.495C208.637 119.215 208.497 118.87 208.497 118.459V100.735H202.449C202.057 100.735 201.73 100.614 201.469 100.371C201.226 100.11 201.105 99.7833 201.105 99.3913C201.105 98.9993 201.226 98.682 201.469 98.4393C201.73 98.178 202.057 98.0473 202.449 98.0473H217.429C217.821 98.0473 218.138 98.178 218.381 98.4393C218.642 98.682 218.773 98.9993 218.773 99.3913C218.773 99.7833 218.642 100.11 218.381 100.371C218.138 100.614 217.821 100.735 217.429 100.735H211.409V118.459C211.409 118.87 211.269 119.215 210.989 119.495C210.709 119.775 210.363 119.915 209.953 119.915ZM223.453 119.915C223.042 119.915 222.697 119.775 222.417 119.495C222.137 119.215 221.997 118.87 221.997 118.459V99.5033C221.997 99.074 222.137 98.7286 222.417 98.4673C222.697 98.1873 223.042 98.0473 223.453 98.0473C223.882 98.0473 224.227 98.1873 224.489 98.4673C224.769 98.7286 224.909 99.074 224.909 99.5033V118.459C224.909 118.87 224.769 119.215 224.489 119.495C224.227 119.775 223.882 119.915 223.453 119.915ZM240.608 120.195C238.966 120.195 237.463 119.925 236.1 119.383C234.738 118.823 233.562 118.049 232.572 117.059C231.602 116.051 230.846 114.866 230.304 113.503C229.763 112.122 229.492 110.61 229.492 108.967C229.492 107.325 229.763 105.822 230.304 104.459C230.846 103.097 231.602 101.921 232.572 100.931C233.562 99.9233 234.738 99.1486 236.1 98.6073C237.463 98.0473 238.966 97.7673 240.608 97.7673C242.251 97.7673 243.744 98.0473 245.088 98.6073C246.451 99.1486 247.627 99.9233 248.616 100.931C249.606 101.921 250.371 103.097 250.912 104.459C251.454 105.822 251.724 107.325 251.724 108.967C251.724 110.61 251.454 112.122 250.912 113.503C250.371 114.866 249.606 116.051 248.616 117.059C247.627 118.049 246.451 118.823 245.088 119.383C243.744 119.925 242.251 120.195 240.608 120.195ZM240.608 117.563C242.232 117.563 243.67 117.19 244.92 116.443C246.171 115.678 247.151 114.651 247.86 113.363C248.57 112.057 248.924 110.591 248.924 108.967C248.924 107.343 248.57 105.887 247.86 104.599C247.151 103.293 246.171 102.266 244.92 101.519C243.67 100.773 242.232 100.399 240.608 100.399C238.984 100.399 237.547 100.773 236.296 101.519C235.046 102.266 234.066 103.293 233.356 104.599C232.647 105.887 232.292 107.343 232.292 108.967C232.292 110.591 232.647 112.057 233.356 113.363C234.066 114.651 235.046 115.678 236.296 116.443C237.547 117.19 238.984 117.563 240.608 117.563ZM257.714 119.915C257.303 119.915 256.958 119.775 256.678 119.495C256.416 119.215 256.286 118.87 256.286 118.459V99.5033C256.286 99.074 256.416 98.7286 256.678 98.4673C256.958 98.1873 257.303 98.0473 257.714 98.0473C258.162 98.0473 258.535 98.2246 258.834 98.5793L271.042 114.819V99.5033C271.042 99.074 271.182 98.7286 271.462 98.4673C271.742 98.1873 272.087 98.0473 272.498 98.0473C272.927 98.0473 273.272 98.1873 273.534 98.4673C273.795 98.7286 273.926 99.074 273.926 99.5033V118.459C273.926 118.87 273.795 119.215 273.534 119.495C273.272 119.775 272.927 119.915 272.498 119.915C272.311 119.915 272.106 119.878 271.882 119.803C271.676 119.71 271.508 119.579 271.378 119.411L259.17 103.171V118.459C259.17 118.87 259.03 119.215 258.75 119.495C258.488 119.775 258.143 119.915 257.714 119.915ZM278.66 119.915C278.137 119.915 277.736 119.691 277.456 119.243C277.176 118.795 277.148 118.319 277.372 117.815L285.24 99.0273C285.52 98.374 285.977 98.0473 286.612 98.0473C287.284 98.0473 287.741 98.374 287.984 99.0273L295.88 117.871C296.085 118.394 296.048 118.87 295.768 119.299C295.506 119.71 295.105 119.915 294.564 119.915C294.284 119.915 294.013 119.841 293.752 119.691C293.509 119.523 293.332 119.299 293.22 119.019L291.652 115.099H281.6L280.004 119.019C279.873 119.318 279.677 119.542 279.416 119.691C279.173 119.841 278.921 119.915 278.66 119.915ZM282.58 112.691H290.672L286.668 102.723L282.58 112.691ZM300.643 119.915C300.233 119.915 299.887 119.775 299.607 119.495C299.346 119.215 299.215 118.87 299.215 118.459V99.5033C299.215 99.0926 299.355 98.7473 299.635 98.4673C299.915 98.1873 300.251 98.0473 300.643 98.0473C301.054 98.0473 301.399 98.1873 301.679 98.4673C301.959 98.7473 302.099 99.0926 302.099 99.5033V117.003H312.235C312.646 117.003 312.991 117.143 313.271 117.423C313.551 117.703 313.691 118.049 313.691 118.459C313.691 118.87 313.551 119.215 313.271 119.495C312.991 119.775 312.646 119.915 312.235 119.915H300.643ZM335.183 120.195C333.671 120.195 332.253 119.915 330.927 119.355C329.621 118.777 328.473 117.983 327.483 116.975C326.513 115.949 325.747 114.754 325.187 113.391C324.646 112.029 324.375 110.554 324.375 108.967C324.375 107.399 324.646 105.943 325.187 104.599C325.747 103.237 326.513 102.051 327.483 101.043C328.473 100.017 329.621 99.214 330.927 98.6353C332.234 98.0566 333.653 97.7673 335.183 97.7673C336.621 97.7673 337.853 97.954 338.879 98.3273C339.925 98.7006 340.97 99.3166 342.015 100.175C342.239 100.362 342.389 100.539 342.463 100.707C342.538 100.875 342.575 101.081 342.575 101.323C342.575 101.678 342.445 101.977 342.183 102.219C341.941 102.443 341.642 102.574 341.287 102.611C340.933 102.63 340.587 102.509 340.251 102.247C339.561 101.65 338.842 101.193 338.095 100.875C337.367 100.558 336.397 100.399 335.183 100.399C334.082 100.399 333.046 100.623 332.075 101.071C331.105 101.519 330.246 102.135 329.499 102.919C328.771 103.703 328.202 104.618 327.791 105.663C327.381 106.69 327.175 107.791 327.175 108.967C327.175 110.162 327.381 111.282 327.791 112.327C328.202 113.354 328.771 114.259 329.499 115.043C330.246 115.827 331.105 116.443 332.075 116.891C333.046 117.321 334.082 117.535 335.183 117.535C336.135 117.535 337.031 117.377 337.871 117.059C338.73 116.723 339.551 116.266 340.335 115.687C340.671 115.445 340.998 115.342 341.315 115.379C341.651 115.398 341.931 115.529 342.155 115.771C342.379 115.995 342.491 116.313 342.491 116.723C342.491 117.115 342.342 117.461 342.043 117.759C340.027 119.383 337.741 120.195 335.183 120.195ZM357.257 120.195C355.614 120.195 354.112 119.925 352.749 119.383C351.386 118.823 350.21 118.049 349.221 117.059C348.25 116.051 347.494 114.866 346.953 113.503C346.412 112.122 346.141 110.61 346.141 108.967C346.141 107.325 346.412 105.822 346.953 104.459C347.494 103.097 348.25 101.921 349.221 100.931C350.21 99.9233 351.386 99.1486 352.749 98.6073C354.112 98.0473 355.614 97.7673 357.257 97.7673C358.9 97.7673 360.393 98.0473 361.737 98.6073C363.1 99.1486 364.276 99.9233 365.265 100.931C366.254 101.921 367.02 103.097 367.561 104.459C368.102 105.822 368.373 107.325 368.373 108.967C368.373 110.61 368.102 112.122 367.561 113.503C367.02 114.866 366.254 116.051 365.265 117.059C364.276 118.049 363.1 118.823 361.737 119.383C360.393 119.925 358.9 120.195 357.257 120.195ZM357.257 117.563C358.881 117.563 360.318 117.19 361.569 116.443C362.82 115.678 363.8 114.651 364.509 113.363C365.218 112.057 365.573 110.591 365.573 108.967C365.573 107.343 365.218 105.887 364.509 104.599C363.8 103.293 362.82 102.266 361.569 101.519C360.318 100.773 358.881 100.399 357.257 100.399C355.633 100.399 354.196 100.773 352.945 101.519C351.694 102.266 350.714 103.293 350.005 104.599C349.296 105.887 348.941 107.343 348.941 108.967C348.941 110.591 349.296 112.057 350.005 113.363C350.714 114.651 351.694 115.678 352.945 116.443C354.196 117.19 355.633 117.563 357.257 117.563ZM374.362 119.915C373.951 119.915 373.606 119.775 373.326 119.495C373.065 119.215 372.934 118.87 372.934 118.459V99.5033C372.934 99.074 373.065 98.7286 373.326 98.4673C373.606 98.1873 373.951 98.0473 374.362 98.0473C374.81 98.0473 375.183 98.2246 375.482 98.5793L387.69 114.819V99.5033C387.69 99.074 387.83 98.7286 388.11 98.4673C388.39 98.1873 388.735 98.0473 389.146 98.0473C389.575 98.0473 389.921 98.1873 390.182 98.4673C390.443 98.7286 390.574 99.074 390.574 99.5033V118.459C390.574 118.87 390.443 119.215 390.182 119.495C389.921 119.775 389.575 119.915 389.146 119.915C388.959 119.915 388.754 119.878 388.53 119.803C388.325 119.71 388.157 119.579 388.026 119.411L375.818 103.171V118.459C375.818 118.87 375.678 119.215 375.398 119.495C375.137 119.775 374.791 119.915 374.362 119.915ZM395.868 119.915C395.458 119.915 395.112 119.775 394.832 119.495C394.552 119.215 394.412 118.87 394.412 118.459V99.5033C394.412 99.074 394.552 98.7286 394.832 98.4673C395.112 98.1873 395.458 98.0473 395.868 98.0473H408.524C408.954 98.0473 409.299 98.178 409.56 98.4393C409.822 98.682 409.952 99.0086 409.952 99.4193C409.952 99.8113 409.822 100.129 409.56 100.371C409.299 100.614 408.954 100.735 408.524 100.735H397.324V107.539H405.36C405.79 107.539 406.135 107.67 406.396 107.931C406.658 108.174 406.788 108.491 406.788 108.883C406.788 109.275 406.658 109.602 406.396 109.863C406.135 110.106 405.79 110.227 405.36 110.227H397.324V118.459C397.324 118.87 397.184 119.215 396.904 119.495C396.624 119.775 396.279 119.915 395.868 119.915ZM415.132 119.915C414.722 119.915 414.376 119.775 414.096 119.495C413.816 119.215 413.676 118.87 413.676 118.459V99.5033C413.676 99.074 413.816 98.7286 414.096 98.4673C414.376 98.1873 414.722 98.0473 415.132 98.0473H427.788C428.218 98.0473 428.563 98.178 428.824 98.4393C429.086 98.682 429.216 99.0086 429.216 99.4193C429.216 99.8113 429.086 100.129 428.824 100.371C428.563 100.614 428.218 100.735 427.788 100.735H416.588V107.539H424.624C425.054 107.539 425.399 107.67 425.66 107.931C425.922 108.174 426.052 108.491 426.052 108.883C426.052 109.275 425.922 109.602 425.66 109.863C425.399 110.106 425.054 110.227 424.624 110.227H416.588V117.227H427.788C428.218 117.227 428.563 117.349 428.824 117.591C429.086 117.834 429.216 118.151 429.216 118.543C429.216 118.954 429.086 119.29 428.824 119.551C428.563 119.794 428.218 119.915 427.788 119.915H415.132ZM434.738 119.915C434.327 119.915 433.982 119.775 433.702 119.495C433.422 119.215 433.282 118.87 433.282 118.459V99.5033C433.282 99.074 433.422 98.7286 433.702 98.4673C433.982 98.1873 434.327 98.0473 434.738 98.0473H439.778C441.178 98.0473 442.419 98.346 443.502 98.9433C444.584 99.522 445.424 100.325 446.022 101.351C446.638 102.378 446.946 103.573 446.946 104.935C446.946 106.279 446.61 107.465 445.938 108.491C445.266 109.499 444.351 110.265 443.194 110.787L447.478 117.675C447.814 118.217 447.86 118.73 447.618 119.215C447.375 119.682 446.955 119.915 446.358 119.915C445.816 119.915 445.396 119.682 445.098 119.215L440.282 111.487C440.114 111.487 439.946 111.487 439.778 111.487H436.194V118.459C436.194 118.87 436.054 119.215 435.774 119.495C435.512 119.775 435.167 119.915 434.738 119.915ZM436.194 108.799H439.778C441.047 108.799 442.092 108.445 442.914 107.735C443.735 107.007 444.146 106.074 444.146 104.935C444.146 103.703 443.735 102.695 442.914 101.911C442.092 101.127 441.047 100.735 439.778 100.735H436.194V108.799ZM452.429 119.915C452.018 119.915 451.673 119.775 451.393 119.495C451.113 119.215 450.973 118.87 450.973 118.459V99.5033C450.973 99.074 451.113 98.7286 451.393 98.4673C451.673 98.1873 452.018 98.0473 452.429 98.0473H465.085C465.514 98.0473 465.86 98.178 466.121 98.4393C466.382 98.682 466.513 99.0086 466.513 99.4193C466.513 99.8113 466.382 100.129 466.121 100.371C465.86 100.614 465.514 100.735 465.085 100.735H453.885V107.539H461.921C462.35 107.539 462.696 107.67 462.957 107.931C463.218 108.174 463.349 108.491 463.349 108.883C463.349 109.275 463.218 109.602 462.957 109.863C462.696 110.106 462.35 110.227 461.921 110.227H453.885V117.227H465.085C465.514 117.227 465.86 117.349 466.121 117.591C466.382 117.834 466.513 118.151 466.513 118.543C466.513 118.954 466.382 119.29 466.121 119.551C465.86 119.794 465.514 119.915 465.085 119.915H452.429ZM472.007 119.915C471.596 119.915 471.251 119.775 470.971 119.495C470.709 119.215 470.579 118.87 470.579 118.459V99.5033C470.579 99.074 470.709 98.7286 470.971 98.4673C471.251 98.1873 471.596 98.0473 472.007 98.0473C472.455 98.0473 472.828 98.2246 473.127 98.5793L485.335 114.819V99.5033C485.335 99.074 485.475 98.7286 485.755 98.4673C486.035 98.1873 486.38 98.0473 486.791 98.0473C487.22 98.0473 487.565 98.1873 487.827 98.4673C488.088 98.7286 488.219 99.074 488.219 99.5033V118.459C488.219 118.87 488.088 119.215 487.827 119.495C487.565 119.775 487.22 119.915 486.791 119.915C486.604 119.915 486.399 119.878 486.175 119.803C485.969 119.71 485.801 119.579 485.671 119.411L473.463 103.171V118.459C473.463 118.87 473.323 119.215 473.043 119.495C472.781 119.775 472.436 119.915 472.007 119.915ZM503.621 120.195C502.109 120.195 500.69 119.915 499.365 119.355C498.058 118.777 496.91 117.983 495.921 116.975C494.95 115.949 494.185 114.754 493.625 113.391C493.083 112.029 492.813 110.554 492.813 108.967C492.813 107.399 493.083 105.943 493.625 104.599C494.185 103.237 494.95 102.051 495.921 101.043C496.91 100.017 498.058 99.214 499.365 98.6353C500.671 98.0566 502.09 97.7673 503.621 97.7673C505.058 97.7673 506.29 97.954 507.317 98.3273C508.362 98.7006 509.407 99.3166 510.453 100.175C510.677 100.362 510.826 100.539 510.901 100.707C510.975 100.875 511.013 101.081 511.013 101.323C511.013 101.678 510.882 101.977 510.621 102.219C510.378 102.443 510.079 102.574 509.725 102.611C509.37 102.63 509.025 102.509 508.689 102.247C507.998 101.65 507.279 101.193 506.533 100.875C505.805 100.558 504.834 100.399 503.621 100.399C502.519 100.399 501.483 100.623 500.513 101.071C499.542 101.519 498.683 102.135 497.937 102.919C497.209 103.703 496.639 104.618 496.229 105.663C495.818 106.69 495.613 107.791 495.613 108.967C495.613 110.162 495.818 111.282 496.229 112.327C496.639 113.354 497.209 114.259 497.937 115.043C498.683 115.827 499.542 116.443 500.513 116.891C501.483 117.321 502.519 117.535 503.621 117.535C504.573 117.535 505.469 117.377 506.309 117.059C507.167 116.723 507.989 116.266 508.773 115.687C509.109 115.445 509.435 115.342 509.753 115.379C510.089 115.398 510.369 115.529 510.593 115.771C510.817 115.995 510.929 116.313 510.929 116.723C510.929 117.115 510.779 117.461 510.481 117.759C508.465 119.383 506.178 120.195 503.621 120.195ZM517.042 119.915C516.632 119.915 516.286 119.775 516.006 119.495C515.726 119.215 515.586 118.87 515.586 118.459V99.5033C515.586 99.074 515.726 98.7286 516.006 98.4673C516.286 98.1873 516.632 98.0473 517.042 98.0473H529.698C530.128 98.0473 530.473 98.178 530.734 98.4393C530.996 98.682 531.126 99.0086 531.126 99.4193C531.126 99.8113 530.996 100.129 530.734 100.371C530.473 100.614 530.128 100.735 529.698 100.735H518.498V107.539H526.534C526.964 107.539 527.309 107.67 527.57 107.931C527.832 108.174 527.962 108.491 527.962 108.883C527.962 109.275 527.832 109.602 527.57 109.863C527.309 110.106 526.964 110.227 526.534 110.227H518.498V117.227H529.698C530.128 117.227 530.473 117.349 530.734 117.591C530.996 117.834 531.126 118.151 531.126 118.543C531.126 118.954 530.996 119.29 530.734 119.551C530.473 119.794 530.128 119.915 529.698 119.915H517.042ZM18.1944 151.195C16.5517 151.195 15.049 150.925 13.6864 150.383C12.3237 149.823 11.1477 149.049 10.1584 148.059C9.18771 147.051 8.43171 145.866 7.89038 144.503C7.34904 143.122 7.07838 141.61 7.07838 139.967C7.07838 138.325 7.34904 136.822 7.89038 135.459C8.43171 134.097 9.18771 132.921 10.1584 131.931C11.1477 130.923 12.3237 130.149 13.6864 129.607C15.049 129.047 16.5517 128.767 18.1944 128.767C19.837 128.767 21.3304 129.047 22.6744 129.607C24.037 130.149 25.213 130.923 26.2024 131.931C27.1917 132.921 27.957 134.097 28.4984 135.459C29.0397 136.822 29.3104 138.325 29.3104 139.967C29.3104 141.61 29.0397 143.122 28.4984 144.503C27.957 145.866 27.1917 147.051 26.2024 148.059C25.213 149.049 24.037 149.823 22.6744 150.383C21.3304 150.925 19.837 151.195 18.1944 151.195ZM18.1944 148.563C19.8184 148.563 21.2557 148.19 22.5064 147.443C23.757 146.678 24.737 145.651 25.4464 144.363C26.1557 143.057 26.5104 141.591 26.5104 139.967C26.5104 138.343 26.1557 136.887 25.4464 135.599C24.737 134.293 23.757 133.266 22.5064 132.519C21.2557 131.773 19.8184 131.399 18.1944 131.399C16.5704 131.399 15.133 131.773 13.8824 132.519C12.6317 133.266 11.6517 134.293 10.9424 135.599C10.233 136.887 9.87838 138.343 9.87838 139.967C9.87838 141.591 10.233 143.057 10.9424 144.363C11.6517 145.651 12.6317 146.678 13.8824 147.443C15.133 148.19 16.5704 148.563 18.1944 148.563ZM35.2995 150.915C34.8889 150.915 34.5435 150.775 34.2635 150.495C34.0022 150.215 33.8715 149.87 33.8715 149.459V130.503C33.8715 130.074 34.0022 129.729 34.2635 129.467C34.5435 129.187 34.8889 129.047 35.2995 129.047C35.7475 129.047 36.1209 129.225 36.4195 129.579L48.6275 145.819V130.503C48.6275 130.074 48.7675 129.729 49.0475 129.467C49.3275 129.187 49.6729 129.047 50.0835 129.047C50.5129 129.047 50.8582 129.187 51.1195 129.467C51.3809 129.729 51.5115 130.074 51.5115 130.503V149.459C51.5115 149.87 51.3809 150.215 51.1195 150.495C50.8582 150.775 50.5129 150.915 50.0835 150.915C49.8969 150.915 49.6915 150.878 49.4675 150.803C49.2622 150.71 49.0942 150.579 48.9635 150.411L36.7555 134.171V149.459C36.7555 149.87 36.6155 150.215 36.3355 150.495C36.0742 150.775 35.7289 150.915 35.2995 150.915ZM75.1168 151.195C73.6048 151.195 72.1862 150.915 70.8608 150.355C69.5542 149.777 68.4062 148.983 67.4168 147.975C66.4462 146.949 65.6808 145.754 65.1208 144.391C64.5795 143.029 64.3088 141.554 64.3088 139.967C64.3088 138.399 64.5795 136.943 65.1208 135.599C65.6808 134.237 66.4462 133.051 67.4168 132.043C68.4062 131.017 69.5542 130.214 70.8608 129.635C72.1675 129.057 73.5862 128.767 75.1168 128.767C76.5542 128.767 77.7862 128.954 78.8128 129.327C79.8582 129.701 80.9035 130.317 81.9488 131.175C82.1728 131.362 82.3222 131.539 82.3968 131.707C82.4715 131.875 82.5088 132.081 82.5088 132.323C82.5088 132.678 82.3782 132.977 82.1168 133.219C81.8742 133.462 81.5662 133.593 81.1928 133.611C80.8382 133.63 80.5022 133.509 80.1848 133.247C79.4942 132.65 78.7755 132.193 78.0288 131.875C77.3008 131.558 76.3302 131.399 75.1168 131.399C74.0155 131.399 72.9795 131.623 72.0088 132.071C71.0382 132.519 70.1795 133.135 69.4328 133.919C68.7048 134.703 68.1355 135.618 67.7248 136.663C67.3142 137.69 67.1088 138.791 67.1088 139.967C67.1088 141.162 67.3142 142.282 67.7248 143.327C68.1355 144.354 68.7048 145.259 69.4328 146.043C70.1795 146.827 71.0382 147.443 72.0088 147.891C72.9795 148.321 74.0155 148.535 75.1168 148.535C75.9382 148.535 76.7222 148.414 77.4688 148.171C78.2155 147.929 78.9342 147.583 79.6248 147.135V142.151H75.7608C75.3502 142.151 75.0048 142.03 74.7248 141.787C74.4448 141.545 74.3048 141.237 74.3048 140.863C74.3048 140.49 74.4448 140.182 74.7248 139.939C75.0048 139.697 75.3502 139.575 75.7608 139.575H80.9968C81.4262 139.575 81.7715 139.715 82.0328 139.995C82.2942 140.257 82.4248 140.602 82.4248 141.031V147.723C82.4248 147.91 82.3875 148.097 82.3128 148.283C82.2568 148.451 82.1448 148.61 81.9768 148.759C80.9875 149.581 79.9142 150.197 78.7568 150.607C77.5995 150.999 76.3862 151.195 75.1168 151.195ZM88.5385 150.915C88.1278 150.915 87.7825 150.775 87.5025 150.495C87.2225 150.215 87.0825 149.87 87.0825 149.459V130.503C87.0825 130.074 87.2225 129.729 87.5025 129.467C87.7825 129.187 88.1278 129.047 88.5385 129.047H93.5785C94.9785 129.047 96.2198 129.346 97.3025 129.943C98.3851 130.522 99.2251 131.325 99.8225 132.351C100.438 133.378 100.746 134.573 100.746 135.935C100.746 137.279 100.41 138.465 99.7385 139.491C99.0665 140.499 98.1518 141.265 96.9945 141.787L101.278 148.675C101.614 149.217 101.661 149.73 101.418 150.215C101.176 150.682 100.756 150.915 100.158 150.915C99.6171 150.915 99.1971 150.682 98.8985 150.215L94.0825 142.487C93.9145 142.487 93.7465 142.487 93.5785 142.487H89.9945V149.459C89.9945 149.87 89.8545 150.215 89.5745 150.495C89.3131 150.775 88.9678 150.915 88.5385 150.915ZM89.9945 139.799H93.5785C94.8478 139.799 95.8931 139.445 96.7145 138.735C97.5358 138.007 97.9465 137.074 97.9465 135.935C97.9465 134.703 97.5358 133.695 96.7145 132.911C95.8931 132.127 94.8478 131.735 93.5785 131.735H89.9945V139.799ZM106.23 150.915C105.819 150.915 105.474 150.775 105.194 150.495C104.914 150.215 104.774 149.87 104.774 149.459V130.503C104.774 130.074 104.914 129.729 105.194 129.467C105.474 129.187 105.819 129.047 106.23 129.047H118.886C119.315 129.047 119.661 129.178 119.922 129.439C120.183 129.682 120.314 130.009 120.314 130.419C120.314 130.811 120.183 131.129 119.922 131.371C119.661 131.614 119.315 131.735 118.886 131.735H107.686V138.539H115.722C116.151 138.539 116.497 138.67 116.758 138.931C117.019 139.174 117.15 139.491 117.15 139.883C117.15 140.275 117.019 140.602 116.758 140.863C116.497 141.106 116.151 141.227 115.722 141.227H107.686V148.227H118.886C119.315 148.227 119.661 148.349 119.922 148.591C120.183 148.834 120.314 149.151 120.314 149.543C120.314 149.954 120.183 150.29 119.922 150.551C119.661 150.794 119.315 150.915 118.886 150.915H106.23ZM125.835 150.915C125.425 150.915 125.079 150.775 124.799 150.495C124.519 150.215 124.379 149.87 124.379 149.459V130.503C124.379 130.074 124.519 129.729 124.799 129.467C125.079 129.187 125.425 129.047 125.835 129.047H138.491C138.921 129.047 139.266 129.178 139.527 129.439C139.789 129.682 139.919 130.009 139.919 130.419C139.919 130.811 139.789 131.129 139.527 131.371C139.266 131.614 138.921 131.735 138.491 131.735H127.291V138.539H135.327C135.757 138.539 136.102 138.67 136.363 138.931C136.625 139.174 136.755 139.491 136.755 139.883C136.755 140.275 136.625 140.602 136.363 140.863C136.102 141.106 135.757 141.227 135.327 141.227H127.291V148.227H138.491C138.921 148.227 139.266 148.349 139.527 148.591C139.789 148.834 139.919 149.151 139.919 149.543C139.919 149.954 139.789 150.29 139.527 150.551C139.266 150.794 138.921 150.915 138.491 150.915H125.835ZM145.441 150.915C145.049 150.915 144.703 150.775 144.405 150.495C144.125 150.215 143.985 149.87 143.985 149.459V130.503C143.985 130.093 144.125 129.747 144.405 129.467C144.703 129.187 145.049 129.047 145.441 129.047C145.851 129.047 146.197 129.187 146.477 129.467C146.757 129.747 146.897 130.093 146.897 130.503V138.903L156.165 129.635C156.389 129.411 156.594 129.262 156.781 129.187C156.967 129.094 157.163 129.047 157.369 129.047C157.835 129.047 158.171 129.187 158.377 129.467C158.582 129.747 158.657 130.083 158.601 130.475C158.545 130.849 158.367 131.194 158.069 131.511L150.929 138.679L158.209 148.591C158.433 148.909 158.526 149.254 158.489 149.627C158.451 149.982 158.321 150.29 158.097 150.551C157.873 150.794 157.574 150.915 157.201 150.915C156.678 150.915 156.277 150.71 155.997 150.299L148.913 140.695L146.897 142.711V149.459C146.897 149.87 146.757 150.215 146.477 150.495C146.197 150.775 145.851 150.915 145.441 150.915ZM172.292 150.915C171.881 150.915 171.536 150.775 171.256 150.495C170.994 150.215 170.864 149.87 170.864 149.459V130.503C170.864 130.093 171.004 129.747 171.284 129.467C171.564 129.187 171.9 129.047 172.292 129.047C172.702 129.047 173.048 129.187 173.328 129.467C173.608 129.747 173.748 130.093 173.748 130.503V148.003H183.884C184.294 148.003 184.64 148.143 184.92 148.423C185.2 148.703 185.34 149.049 185.34 149.459C185.34 149.87 185.2 150.215 184.92 150.495C184.64 150.775 184.294 150.915 183.884 150.915H172.292ZM190.285 150.915C189.874 150.915 189.529 150.775 189.249 150.495C188.969 150.215 188.829 149.87 188.829 149.459V130.503C188.829 130.074 188.969 129.729 189.249 129.467C189.529 129.187 189.874 129.047 190.285 129.047C190.714 129.047 191.059 129.187 191.321 129.467C191.601 129.729 191.741 130.074 191.741 130.503V149.459C191.741 149.87 191.601 150.215 191.321 150.495C191.059 150.775 190.714 150.915 190.285 150.915ZM198.76 150.915C198.35 150.915 198.004 150.775 197.724 150.495C197.463 150.215 197.332 149.87 197.332 149.459V130.503C197.332 130.074 197.463 129.729 197.724 129.467C198.004 129.187 198.35 129.047 198.76 129.047C199.208 129.047 199.582 129.225 199.88 129.579L212.088 145.819V130.503C212.088 130.074 212.228 129.729 212.508 129.467C212.788 129.187 213.134 129.047 213.544 129.047C213.974 129.047 214.319 129.187 214.58 129.467C214.842 129.729 214.972 130.074 214.972 130.503V149.459C214.972 149.87 214.842 150.215 214.58 150.495C214.319 150.775 213.974 150.915 213.544 150.915C213.358 150.915 213.152 150.878 212.928 150.803C212.723 150.71 212.555 150.579 212.424 150.411L200.216 134.171V149.459C200.216 149.87 200.076 150.215 199.796 150.495C199.535 150.775 199.19 150.915 198.76 150.915ZM230.375 151.195C228.863 151.195 227.444 150.915 226.119 150.355C224.812 149.777 223.664 148.983 222.675 147.975C221.704 146.949 220.939 145.754 220.379 144.391C219.837 143.029 219.567 141.554 219.567 139.967C219.567 138.399 219.837 136.943 220.379 135.599C220.939 134.237 221.704 133.051 222.675 132.043C223.664 131.017 224.812 130.214 226.119 129.635C227.425 129.057 228.844 128.767 230.375 128.767C231.812 128.767 233.044 128.954 234.071 129.327C235.116 129.701 236.161 130.317 237.207 131.175C237.431 131.362 237.58 131.539 237.655 131.707C237.729 131.875 237.767 132.081 237.767 132.323C237.767 132.678 237.636 132.977 237.375 133.219C237.132 133.462 236.824 133.593 236.451 133.611C236.096 133.63 235.76 133.509 235.443 133.247C234.752 132.65 234.033 132.193 233.287 131.875C232.559 131.558 231.588 131.399 230.375 131.399C229.273 131.399 228.237 131.623 227.267 132.071C226.296 132.519 225.437 133.135 224.691 133.919C223.963 134.703 223.393 135.618 222.983 136.663C222.572 137.69 222.367 138.791 222.367 139.967C222.367 141.162 222.572 142.282 222.983 143.327C223.393 144.354 223.963 145.259 224.691 146.043C225.437 146.827 226.296 147.443 227.267 147.891C228.237 148.321 229.273 148.535 230.375 148.535C231.196 148.535 231.98 148.414 232.727 148.171C233.473 147.929 234.192 147.583 234.883 147.135V142.151H231.019C230.608 142.151 230.263 142.03 229.983 141.787C229.703 141.545 229.563 141.237 229.563 140.863C229.563 140.49 229.703 140.182 229.983 139.939C230.263 139.697 230.608 139.575 231.019 139.575H236.255C236.684 139.575 237.029 139.715 237.291 139.995C237.552 140.257 237.683 140.602 237.683 141.031V147.723C237.683 147.91 237.645 148.097 237.571 148.283C237.515 148.451 237.403 148.61 237.235 148.759C236.245 149.581 235.172 150.197 234.015 150.607C232.857 150.999 231.644 151.195 230.375 151.195ZM251.496 151.363C249.704 151.363 248.118 151.037 246.736 150.383C245.355 149.711 244.272 148.787 243.488 147.611C242.723 146.435 242.34 145.091 242.34 143.579V130.503C242.34 130.074 242.48 129.729 242.76 129.467C243.04 129.187 243.386 129.047 243.796 129.047C244.226 129.047 244.571 129.187 244.832 129.467C245.112 129.729 245.252 130.074 245.252 130.503V143.579C245.252 144.587 245.514 145.483 246.036 146.267C246.578 147.033 247.315 147.639 248.248 148.087C249.2 148.517 250.283 148.731 251.496 148.731C252.672 148.731 253.708 148.517 254.604 148.087C255.519 147.639 256.228 147.033 256.732 146.267C257.255 145.483 257.516 144.587 257.516 143.579V130.503C257.516 130.074 257.656 129.729 257.936 129.467C258.216 129.187 258.562 129.047 258.972 129.047C259.402 129.047 259.747 129.187 260.008 129.467C260.27 129.729 260.4 130.074 260.4 130.503V143.579C260.4 145.091 260.018 146.435 259.252 147.611C258.506 148.787 257.46 149.711 256.116 150.383C254.772 151.037 253.232 151.363 251.496 151.363ZM267.449 150.915C267.038 150.915 266.693 150.775 266.413 150.495C266.133 150.215 265.993 149.87 265.993 149.459V130.503C265.993 130.074 266.133 129.729 266.413 129.467C266.693 129.187 267.038 129.047 267.449 129.047C267.878 129.047 268.223 129.187 268.485 129.467C268.765 129.729 268.905 130.074 268.905 130.503V149.459C268.905 149.87 268.765 150.215 268.485 150.495C268.223 150.775 267.878 150.915 267.449 150.915ZM281.441 151.195C280.246 151.195 279.107 151.009 278.025 150.635C276.942 150.262 275.999 149.739 275.197 149.067C274.394 148.395 273.806 147.621 273.433 146.743C273.246 146.351 273.246 145.987 273.433 145.651C273.638 145.315 273.974 145.101 274.441 145.007C274.777 144.933 275.103 144.989 275.421 145.175C275.757 145.343 276.009 145.605 276.177 145.959C276.401 146.426 276.765 146.855 277.269 147.247C277.791 147.639 278.417 147.957 279.145 148.199C279.873 148.442 280.638 148.563 281.441 148.563C282.337 148.563 283.158 148.423 283.905 148.143C284.67 147.863 285.286 147.462 285.753 146.939C286.219 146.398 286.453 145.735 286.453 144.951C286.453 143.962 286.061 143.075 285.277 142.291C284.511 141.507 283.242 141.022 281.469 140.835C279.154 140.611 277.334 139.93 276.009 138.791C274.683 137.653 274.021 136.243 274.021 134.563C274.021 133.331 274.366 132.286 275.057 131.427C275.747 130.569 276.681 129.915 277.857 129.467C279.051 129.019 280.377 128.795 281.833 128.795C283.531 128.795 284.922 129.141 286.005 129.831C287.087 130.522 287.983 131.437 288.693 132.575C288.954 132.986 289.057 133.378 289.001 133.751C288.963 134.106 288.786 134.386 288.469 134.591C288.114 134.815 287.731 134.862 287.321 134.731C286.91 134.601 286.602 134.358 286.397 134.003C285.93 133.201 285.323 132.575 284.577 132.127C283.849 131.679 282.906 131.446 281.749 131.427C280.367 131.409 279.21 131.67 278.277 132.211C277.343 132.734 276.877 133.546 276.877 134.647C276.877 135.207 277.017 135.749 277.297 136.271C277.595 136.775 278.127 137.214 278.893 137.587C279.677 137.961 280.797 138.222 282.253 138.371C284.474 138.595 286.201 139.277 287.433 140.415C288.683 141.535 289.309 143.019 289.309 144.867C289.309 145.931 289.085 146.855 288.637 147.639C288.207 148.423 287.619 149.086 286.873 149.627C286.145 150.15 285.305 150.542 284.353 150.803C283.419 151.065 282.449 151.195 281.441 151.195ZM299.121 150.915C298.71 150.915 298.365 150.775 298.085 150.495C297.805 150.215 297.665 149.87 297.665 149.459V131.735H291.617C291.225 131.735 290.898 131.614 290.637 131.371C290.394 131.11 290.273 130.783 290.273 130.391C290.273 129.999 290.394 129.682 290.637 129.439C290.898 129.178 291.225 129.047 291.617 129.047H306.597C306.989 129.047 307.306 129.178 307.549 129.439C307.81 129.682 307.941 129.999 307.941 130.391C307.941 130.783 307.81 131.11 307.549 131.371C307.306 131.614 306.989 131.735 306.597 131.735H300.577V149.459C300.577 149.87 300.437 150.215 300.157 150.495C299.877 150.775 299.531 150.915 299.121 150.915ZM312.621 150.915C312.21 150.915 311.865 150.775 311.585 150.495C311.305 150.215 311.165 149.87 311.165 149.459V130.503C311.165 130.074 311.305 129.729 311.585 129.467C311.865 129.187 312.21 129.047 312.621 129.047C313.05 129.047 313.395 129.187 313.657 129.467C313.937 129.729 314.077 130.074 314.077 130.503V149.459C314.077 149.87 313.937 150.215 313.657 150.495C313.395 150.775 313.05 150.915 312.621 150.915ZM329.468 151.195C327.956 151.195 326.538 150.915 325.212 150.355C323.906 149.777 322.758 148.983 321.768 147.975C320.798 146.949 320.032 145.754 319.472 144.391C318.931 143.029 318.66 141.554 318.66 139.967C318.66 138.399 318.931 136.943 319.472 135.599C320.032 134.237 320.798 133.051 321.768 132.043C322.758 131.017 323.906 130.214 325.212 129.635C326.519 129.057 327.938 128.767 329.468 128.767C330.906 128.767 332.138 128.954 333.164 129.327C334.21 129.701 335.255 130.317 336.3 131.175C336.524 131.362 336.674 131.539 336.748 131.707C336.823 131.875 336.86 132.081 336.86 132.323C336.86 132.678 336.73 132.977 336.468 133.219C336.226 133.443 335.927 133.574 335.572 133.611C335.218 133.63 334.872 133.509 334.536 133.247C333.846 132.65 333.127 132.193 332.38 131.875C331.652 131.558 330.682 131.399 329.468 131.399C328.367 131.399 327.331 131.623 326.36 132.071C325.39 132.519 324.531 133.135 323.784 133.919C323.056 134.703 322.487 135.618 322.076 136.663C321.666 137.69 321.46 138.791 321.46 139.967C321.46 141.162 321.666 142.282 322.076 143.327C322.487 144.354 323.056 145.259 323.784 146.043C324.531 146.827 325.39 147.443 326.36 147.891C327.331 148.321 328.367 148.535 329.468 148.535C330.42 148.535 331.316 148.377 332.156 148.059C333.015 147.723 333.836 147.266 334.62 146.687C334.956 146.445 335.283 146.342 335.6 146.379C335.936 146.398 336.216 146.529 336.44 146.771C336.664 146.995 336.776 147.313 336.776 147.723C336.776 148.115 336.627 148.461 336.328 148.759C334.312 150.383 332.026 151.195 329.468 151.195ZM348.378 151.195C347.183 151.195 346.045 151.009 344.962 150.635C343.879 150.262 342.937 149.739 342.134 149.067C341.331 148.395 340.743 147.621 340.37 146.743C340.183 146.351 340.183 145.987 340.37 145.651C340.575 145.315 340.911 145.101 341.378 145.007C341.714 144.933 342.041 144.989 342.358 145.175C342.694 145.343 342.946 145.605 343.114 145.959C343.338 146.426 343.702 146.855 344.206 147.247C344.729 147.639 345.354 147.957 346.082 148.199C346.81 148.442 347.575 148.563 348.378 148.563C349.274 148.563 350.095 148.423 350.842 148.143C351.607 147.863 352.223 147.462 352.69 146.939C353.157 146.398 353.39 145.735 353.39 144.951C353.39 143.962 352.998 143.075 352.214 142.291C351.449 141.507 350.179 141.022 348.406 140.835C346.091 140.611 344.271 139.93 342.946 138.791C341.621 137.653 340.958 136.243 340.958 134.563C340.958 133.331 341.303 132.286 341.994 131.427C342.685 130.569 343.618 129.915 344.794 129.467C345.989 129.019 347.314 128.795 348.77 128.795C350.469 128.795 351.859 129.141 352.942 129.831C354.025 130.522 354.921 131.437 355.63 132.575C355.891 132.986 355.994 133.378 355.938 133.751C355.901 134.106 355.723 134.386 355.406 134.591C355.051 134.815 354.669 134.862 354.258 134.731C353.847 134.601 353.539 134.358 353.334 134.003C352.867 133.201 352.261 132.575 351.514 132.127C350.786 131.679 349.843 131.446 348.686 131.427C347.305 131.409 346.147 131.67 345.214 132.211C344.281 132.734 343.814 133.546 343.814 134.647C343.814 135.207 343.954 135.749 344.234 136.271C344.533 136.775 345.065 137.214 345.83 137.587C346.614 137.961 347.734 138.222 349.19 138.371C351.411 138.595 353.138 139.277 354.37 140.415C355.621 141.535 356.246 143.019 356.246 144.867C356.246 145.931 356.022 146.855 355.574 147.639C355.145 148.423 354.557 149.086 353.81 149.627C353.082 150.15 352.242 150.542 351.29 150.803C350.357 151.065 349.386 151.195 348.378 151.195ZM12.0344 181.915C11.661 181.915 11.3344 181.775 11.0544 181.495C10.7744 181.215 10.6344 180.879 10.6344 180.487V163.407L8.59038 164.275C8.27304 164.406 7.97438 164.471 7.69438 164.471C7.28371 164.471 6.93838 164.341 6.65838 164.079C6.39704 163.818 6.26638 163.482 6.26638 163.071C6.26638 162.773 6.34104 162.502 6.49038 162.259C6.63971 162.017 6.87304 161.839 7.19038 161.727L11.5584 160.159C11.6517 160.122 11.745 160.094 11.8384 160.075C11.9317 160.057 12.0157 160.047 12.0904 160.047C12.5197 160.047 12.8557 160.187 13.0984 160.467C13.3597 160.729 13.4904 161.074 13.4904 161.503V180.487C13.4904 180.879 13.3504 181.215 13.0704 181.495C12.7904 181.775 12.445 181.915 12.0344 181.915ZM24.7066 181.915C23.4186 181.915 22.2706 181.635 21.2626 181.075C20.2732 180.497 19.4986 179.713 18.9386 178.723C18.3786 177.715 18.0986 176.567 18.0986 175.279C18.0986 173.842 18.4532 172.573 19.1626 171.471L25.5186 160.859C25.8546 160.337 26.2839 160.075 26.8066 160.075C27.1986 160.075 27.5252 160.187 27.7866 160.411C28.0479 160.635 28.2066 160.915 28.2626 161.251C28.3372 161.587 28.2719 161.923 28.0666 162.259L24.2306 168.643C24.3799 168.625 24.5386 168.615 24.7066 168.615C25.9946 168.615 27.1332 168.905 28.1226 169.483C29.1119 170.043 29.8866 170.827 30.4466 171.835C31.0066 172.825 31.2866 173.973 31.2866 175.279C31.2866 176.567 31.0066 177.715 30.4466 178.723C29.8866 179.713 29.1119 180.497 28.1226 181.075C27.1332 181.635 25.9946 181.915 24.7066 181.915ZM24.6786 179.395C25.8359 179.395 26.7786 179.013 27.5066 178.247C28.2346 177.482 28.5986 176.493 28.5986 175.279C28.5986 174.066 28.2346 173.077 27.5066 172.311C26.7786 171.527 25.8359 171.135 24.6786 171.135C23.5399 171.135 22.6066 171.527 21.8786 172.311C21.1506 173.077 20.7866 174.066 20.7866 175.279C20.7866 176.493 21.1506 177.482 21.8786 178.247C22.6066 179.013 23.5399 179.395 24.6786 179.395ZM34.9841 175.671C34.5734 175.671 34.2281 175.541 33.9481 175.279C33.6868 175.018 33.5561 174.682 33.5561 174.271C33.5561 173.842 33.6868 173.497 33.9481 173.235C34.2281 172.974 34.5734 172.843 34.9841 172.843H41.2281C41.6388 172.843 41.9748 172.974 42.2361 173.235C42.4974 173.497 42.6281 173.842 42.6281 174.271C42.6281 174.682 42.4974 175.018 42.2361 175.279C41.9748 175.541 41.6388 175.671 41.2281 175.671H34.9841ZM50.2336 181.915C49.8603 181.915 49.5336 181.775 49.2536 181.495C48.9736 181.215 48.8336 180.879 48.8336 180.487V163.407L46.7896 164.275C46.4723 164.406 46.1736 164.471 45.8936 164.471C45.4829 164.471 45.1376 164.341 44.8576 164.079C44.5963 163.818 44.4656 163.482 44.4656 163.071C44.4656 162.773 44.5403 162.502 44.6896 162.259C44.8389 162.017 45.0723 161.839 45.3896 161.727L49.7576 160.159C49.8509 160.122 49.9443 160.094 50.0376 160.075C50.1309 160.057 50.2149 160.047 50.2896 160.047C50.7189 160.047 51.0549 160.187 51.2976 160.467C51.5589 160.729 51.6896 161.074 51.6896 161.503V180.487C51.6896 180.879 51.5496 181.215 51.2696 181.495C50.9896 181.775 50.6443 181.915 50.2336 181.915ZM62.3178 160.019C63.6058 160.019 64.7445 160.309 65.7338 160.887C66.7418 161.447 67.5258 162.231 68.0858 163.239C68.6458 164.229 68.9258 165.367 68.9258 166.655C68.9258 168.093 68.5711 169.362 67.8618 170.463L61.5058 181.075C61.1698 181.598 60.7405 181.859 60.2178 181.859C59.8258 181.859 59.4991 181.747 59.2378 181.523C58.9764 181.299 58.8085 181.019 58.7338 180.683C58.6778 180.347 58.7525 180.011 58.9578 179.675L62.7938 173.291C62.6445 173.31 62.4858 173.319 62.3178 173.319C61.0298 173.319 59.8911 173.039 58.9018 172.479C57.9125 171.901 57.1378 171.117 56.5778 170.127C56.0178 169.119 55.7378 167.962 55.7378 166.655C55.7378 165.367 56.0178 164.229 56.5778 163.239C57.1378 162.231 57.9125 161.447 58.9018 160.887C59.8911 160.309 61.0298 160.019 62.3178 160.019ZM62.3458 162.539C61.1885 162.539 60.2458 162.922 59.5178 163.687C58.7898 164.453 58.4258 165.442 58.4258 166.655C58.4258 167.869 58.7898 168.867 59.5178 169.651C60.2458 170.417 61.1885 170.799 62.3458 170.799C63.4845 170.799 64.4178 170.417 65.1458 169.651C65.8738 168.867 66.2378 167.869 66.2378 166.655C66.2378 165.442 65.8738 164.453 65.1458 163.687C64.4178 162.922 63.4845 162.539 62.3458 162.539ZM88.6944 182.195C87.4998 182.195 86.3611 182.009 85.2784 181.635C84.1958 181.262 83.2531 180.739 82.4504 180.067C81.6478 179.395 81.0598 178.621 80.6864 177.743C80.4998 177.351 80.4998 176.987 80.6864 176.651C80.8918 176.315 81.2278 176.101 81.6944 176.007C82.0304 175.933 82.3571 175.989 82.6744 176.175C83.0104 176.343 83.2624 176.605 83.4304 176.959C83.6544 177.426 84.0184 177.855 84.5224 178.247C85.0451 178.639 85.6704 178.957 86.3984 179.199C87.1264 179.442 87.8918 179.563 88.6944 179.563C89.5904 179.563 90.4118 179.423 91.1584 179.143C91.9238 178.863 92.5398 178.462 93.0064 177.939C93.4731 177.398 93.7064 176.735 93.7064 175.951C93.7064 174.962 93.3144 174.075 92.5304 173.291C91.7651 172.507 90.4958 172.022 88.7224 171.835C86.4078 171.611 84.5878 170.93 83.2624 169.791C81.9371 168.653 81.2744 167.243 81.2744 165.563C81.2744 164.331 81.6198 163.286 82.3104 162.427C83.0011 161.569 83.9344 160.915 85.1104 160.467C86.3051 160.019 87.6304 159.795 89.0864 159.795C90.7851 159.795 92.1758 160.141 93.2584 160.831C94.3411 161.522 95.2371 162.437 95.9464 163.575C96.2078 163.986 96.3104 164.378 96.2544 164.751C96.2171 165.106 96.0398 165.386 95.7224 165.591C95.3678 165.815 94.9851 165.862 94.5744 165.731C94.1638 165.601 93.8558 165.358 93.6504 165.003C93.1838 164.201 92.5771 163.575 91.8304 163.127C91.1024 162.679 90.1598 162.446 89.0024 162.427C87.6211 162.409 86.4638 162.67 85.5304 163.211C84.5971 163.734 84.1304 164.546 84.1304 165.647C84.1304 166.207 84.2704 166.749 84.5504 167.271C84.8491 167.775 85.3811 168.214 86.1464 168.587C86.9304 168.961 88.0504 169.222 89.5064 169.371C91.7278 169.595 93.4544 170.277 94.6864 171.415C95.9371 172.535 96.5624 174.019 96.5624 175.867C96.5624 176.931 96.3384 177.855 95.8904 178.639C95.4611 179.423 94.8731 180.086 94.1264 180.627C93.3984 181.15 92.5584 181.542 91.6064 181.803C90.6731 182.065 89.7024 182.195 88.6944 182.195ZM102.484 181.915C102.073 181.915 101.728 181.775 101.448 181.495C101.168 181.215 101.028 180.87 101.028 180.459V161.503C101.028 161.074 101.168 160.729 101.448 160.467C101.728 160.187 102.073 160.047 102.484 160.047H115.14C115.569 160.047 115.914 160.178 116.176 160.439C116.437 160.682 116.568 161.009 116.568 161.419C116.568 161.811 116.437 162.129 116.176 162.371C115.914 162.614 115.569 162.735 115.14 162.735H103.94V169.539H111.976C112.405 169.539 112.75 169.67 113.012 169.931C113.273 170.174 113.404 170.491 113.404 170.883C113.404 171.275 113.273 171.602 113.012 171.863C112.75 172.106 112.405 172.227 111.976 172.227H103.94V179.227H115.14C115.569 179.227 115.914 179.349 116.176 179.591C116.437 179.834 116.568 180.151 116.568 180.543C116.568 180.954 116.437 181.29 116.176 181.551C115.914 181.794 115.569 181.915 115.14 181.915H102.484ZM122.089 181.915C121.679 181.915 121.333 181.775 121.053 181.495C120.773 181.215 120.633 180.87 120.633 180.459V161.503C120.633 161.074 120.773 160.729 121.053 160.467C121.333 160.187 121.679 160.047 122.089 160.047H127.689C129.089 160.047 130.331 160.355 131.413 160.971C132.496 161.587 133.336 162.446 133.933 163.547C134.549 164.63 134.857 165.881 134.857 167.299C134.857 168.662 134.549 169.875 133.933 170.939C133.336 172.003 132.496 172.834 131.413 173.431C130.331 174.029 129.089 174.327 127.689 174.327H123.545V180.459C123.545 180.87 123.405 181.215 123.125 181.495C122.864 181.775 122.519 181.915 122.089 181.915ZM123.545 171.639H127.689C128.959 171.639 130.004 171.238 130.825 170.435C131.647 169.614 132.057 168.569 132.057 167.299C132.057 166.403 131.871 165.619 131.497 164.947C131.124 164.257 130.611 163.715 129.957 163.323C129.304 162.931 128.548 162.735 127.689 162.735H123.545V171.639ZM144.82 181.915C144.409 181.915 144.064 181.775 143.784 181.495C143.504 181.215 143.364 180.87 143.364 180.459V162.735H137.316C136.924 162.735 136.597 162.614 136.336 162.371C136.093 162.11 135.972 161.783 135.972 161.391C135.972 160.999 136.093 160.682 136.336 160.439C136.597 160.178 136.924 160.047 137.316 160.047H152.296C152.688 160.047 153.005 160.178 153.248 160.439C153.509 160.682 153.64 160.999 153.64 161.391C153.64 161.783 153.509 162.11 153.248 162.371C153.005 162.614 152.688 162.735 152.296 162.735H146.276V180.459C146.276 180.87 146.136 181.215 145.856 181.495C145.576 181.775 145.231 181.915 144.82 181.915ZM158.32 181.915C157.909 181.915 157.564 181.775 157.284 181.495C157.004 181.215 156.864 180.87 156.864 180.459V161.503C156.864 161.074 157.004 160.729 157.284 160.467C157.564 160.187 157.909 160.047 158.32 160.047H170.976C171.405 160.047 171.75 160.178 172.012 160.439C172.273 160.682 172.404 161.009 172.404 161.419C172.404 161.811 172.273 162.129 172.012 162.371C171.75 162.614 171.405 162.735 170.976 162.735H159.776V169.539H167.812C168.241 169.539 168.586 169.67 168.848 169.931C169.109 170.174 169.24 170.491 169.24 170.883C169.24 171.275 169.109 171.602 168.848 171.863C168.586 172.106 168.241 172.227 167.812 172.227H159.776V179.227H170.976C171.405 179.227 171.75 179.349 172.012 179.591C172.273 179.834 172.404 180.151 172.404 180.543C172.404 180.954 172.273 181.29 172.012 181.551C171.75 181.794 171.405 181.915 170.976 181.915H158.32ZM177.925 181.915C177.515 181.915 177.169 181.775 176.889 181.495C176.609 181.215 176.469 180.87 176.469 180.459V161.503C176.469 161.074 176.609 160.729 176.889 160.467C177.169 160.187 177.515 160.047 177.925 160.047C178.485 160.047 178.915 160.309 179.213 160.831L187.529 177.491L195.621 160.831C195.92 160.309 196.349 160.047 196.909 160.047C197.32 160.047 197.665 160.187 197.945 160.467C198.225 160.729 198.365 161.074 198.365 161.503V180.459C198.365 180.87 198.216 181.215 197.917 181.495C197.637 181.775 197.301 181.915 196.909 181.915C196.499 181.915 196.153 181.775 195.873 181.495C195.593 181.215 195.453 180.87 195.453 180.459V166.543L188.677 180.347C188.36 180.833 187.94 181.075 187.417 181.075C186.801 181.075 186.353 180.786 186.073 180.207L179.381 166.795V180.459C179.381 180.87 179.241 181.215 178.961 181.495C178.681 181.775 178.336 181.915 177.925 181.915ZM205.433 181.915C205.022 181.915 204.677 181.775 204.397 181.495C204.117 181.215 203.977 180.87 203.977 180.459V161.503C203.977 161.074 204.117 160.729 204.397 160.467C204.677 160.187 205.022 160.047 205.433 160.047H212.125C213.394 160.047 214.505 160.299 215.457 160.803C216.428 161.289 217.184 161.97 217.725 162.847C218.285 163.725 218.565 164.733 218.565 165.871C218.565 166.786 218.313 167.617 217.809 168.363C217.324 169.091 216.652 169.67 215.793 170.099C217.025 170.398 218.014 170.986 218.761 171.863C219.508 172.741 219.881 173.889 219.881 175.307C219.881 176.595 219.573 177.734 218.957 178.723C218.36 179.713 217.52 180.497 216.437 181.075C215.354 181.635 214.113 181.915 212.713 181.915H205.433ZM206.889 169.035H212.125C213.189 169.035 214.057 168.774 214.729 168.251C215.42 167.729 215.765 166.935 215.765 165.871C215.765 164.807 215.42 164.023 214.729 163.519C214.057 162.997 213.189 162.735 212.125 162.735H206.889V169.035ZM206.889 179.227H212.713C213.982 179.227 215.028 178.901 215.849 178.247C216.67 177.575 217.081 176.595 217.081 175.307C217.081 174.113 216.67 173.217 215.849 172.619C215.028 172.022 213.982 171.723 212.713 171.723H206.889V179.227ZM225.667 181.915C225.257 181.915 224.911 181.775 224.631 181.495C224.351 181.215 224.211 180.87 224.211 180.459V161.503C224.211 161.074 224.351 160.729 224.631 160.467C224.911 160.187 225.257 160.047 225.667 160.047H238.323C238.753 160.047 239.098 160.178 239.359 160.439C239.621 160.682 239.751 161.009 239.751 161.419C239.751 161.811 239.621 162.129 239.359 162.371C239.098 162.614 238.753 162.735 238.323 162.735H227.123V169.539H235.159C235.589 169.539 235.934 169.67 236.195 169.931C236.457 170.174 236.587 170.491 236.587 170.883C236.587 171.275 236.457 171.602 236.195 171.863C235.934 172.106 235.589 172.227 235.159 172.227H227.123V179.227H238.323C238.753 179.227 239.098 179.349 239.359 179.591C239.621 179.834 239.751 180.151 239.751 180.543C239.751 180.954 239.621 181.29 239.359 181.551C239.098 181.794 238.753 181.915 238.323 181.915H225.667ZM245.273 181.915C244.862 181.915 244.517 181.775 244.237 181.495C243.957 181.215 243.817 180.87 243.817 180.459V161.503C243.817 161.074 243.957 160.729 244.237 160.467C244.517 160.187 244.862 160.047 245.273 160.047H250.313C251.713 160.047 252.954 160.346 254.037 160.943C255.12 161.522 255.96 162.325 256.557 163.351C257.173 164.378 257.481 165.573 257.481 166.935C257.481 168.279 257.145 169.465 256.473 170.491C255.801 171.499 254.886 172.265 253.729 172.787L258.013 179.675C258.349 180.217 258.396 180.73 258.153 181.215C257.91 181.682 257.49 181.915 256.893 181.915C256.352 181.915 255.932 181.682 255.633 181.215L250.817 173.487C250.649 173.487 250.481 173.487 250.313 173.487H246.729V180.459C246.729 180.87 246.589 181.215 246.309 181.495C246.048 181.775 245.702 181.915 245.273 181.915ZM246.729 170.799H250.313C251.582 170.799 252.628 170.445 253.449 169.735C254.27 169.007 254.681 168.074 254.681 166.935C254.681 165.703 254.27 164.695 253.449 163.911C252.628 163.127 251.582 162.735 250.313 162.735H246.729V170.799ZM270.159 181.915C269.749 181.915 269.403 181.775 269.123 181.495C268.862 181.215 268.731 180.879 268.731 180.487C268.731 180.077 268.862 179.741 269.123 179.479L277.075 170.183C277.635 169.53 278.065 168.914 278.363 168.335C278.681 167.757 278.839 167.206 278.839 166.683C278.839 165.47 278.522 164.499 277.887 163.771C277.271 163.043 276.422 162.679 275.339 162.679C274.63 162.679 273.986 162.866 273.407 163.239C272.847 163.594 272.399 164.079 272.063 164.695C271.746 165.293 271.587 165.955 271.587 166.683C271.587 167.057 271.447 167.383 271.167 167.663C270.906 167.943 270.57 168.083 270.159 168.083C269.767 168.083 269.431 167.943 269.151 167.663C268.871 167.383 268.731 167.057 268.731 166.683C268.731 165.414 269.021 164.285 269.599 163.295C270.178 162.287 270.962 161.494 271.951 160.915C272.959 160.337 274.089 160.047 275.339 160.047C276.609 160.047 277.71 160.318 278.643 160.859C279.577 161.401 280.295 162.166 280.799 163.155C281.322 164.145 281.583 165.321 281.583 166.683C281.583 167.281 281.453 167.887 281.191 168.503C280.949 169.119 280.631 169.707 280.239 170.267C279.866 170.827 279.483 171.331 279.091 171.779L272.679 179.059H280.519C280.93 179.059 281.275 179.209 281.555 179.507C281.835 179.787 281.975 180.114 281.975 180.487C281.975 180.879 281.835 181.215 281.555 181.495C281.275 181.775 280.93 181.915 280.519 181.915H270.159ZM291.464 181.915C289.336 181.915 287.684 180.954 286.508 179.031C285.351 177.09 284.772 174.402 284.772 170.967C284.772 167.514 285.351 164.826 286.508 162.903C287.684 160.981 289.336 160.019 291.464 160.019C292.883 160.019 294.087 160.467 295.076 161.363C296.084 162.241 296.85 163.501 297.372 165.143C297.895 166.767 298.156 168.709 298.156 170.967C298.156 173.226 297.895 175.177 297.372 176.819C296.85 178.443 296.084 179.703 295.076 180.599C294.087 181.477 292.883 181.915 291.464 181.915ZM291.464 179.003C292.323 179.003 293.032 178.658 293.592 177.967C294.152 177.258 294.572 176.297 294.852 175.083C295.132 173.87 295.272 172.498 295.272 170.967C295.272 169.437 295.132 168.065 294.852 166.851C294.572 165.638 294.152 164.677 293.592 163.967C293.032 163.258 292.323 162.903 291.464 162.903C290.606 162.903 289.896 163.258 289.336 163.967C288.776 164.658 288.356 165.61 288.076 166.823C287.796 168.037 287.656 169.418 287.656 170.967C287.656 172.517 287.796 173.898 288.076 175.111C288.356 176.325 288.776 177.277 289.336 177.967C289.915 178.658 290.624 179.003 291.464 179.003ZM302.808 181.915C302.397 181.915 302.052 181.775 301.772 181.495C301.51 181.215 301.38 180.879 301.38 180.487C301.38 180.077 301.51 179.741 301.772 179.479L309.724 170.183C310.284 169.53 310.713 168.914 311.012 168.335C311.329 167.757 311.488 167.206 311.488 166.683C311.488 165.47 311.17 164.499 310.536 163.771C309.92 163.043 309.07 162.679 307.988 162.679C307.278 162.679 306.634 162.866 306.056 163.239C305.496 163.594 305.048 164.079 304.712 164.695C304.394 165.293 304.236 165.955 304.236 166.683C304.236 167.057 304.096 167.383 303.816 167.663C303.554 167.943 303.218 168.083 302.808 168.083C302.416 168.083 302.08 167.943 301.8 167.663C301.52 167.383 301.38 167.057 301.38 166.683C301.38 165.414 301.669 164.285 302.248 163.295C302.826 162.287 303.61 161.494 304.6 160.915C305.608 160.337 306.737 160.047 307.988 160.047C309.257 160.047 310.358 160.318 311.292 160.859C312.225 161.401 312.944 162.166 313.448 163.155C313.97 164.145 314.232 165.321 314.232 166.683C314.232 167.281 314.101 167.887 313.84 168.503C313.597 169.119 313.28 169.707 312.888 170.267C312.514 170.827 312.132 171.331 311.74 171.779L305.328 179.059H313.168C313.578 179.059 313.924 179.209 314.204 179.507C314.484 179.787 314.624 180.114 314.624 180.487C314.624 180.879 314.484 181.215 314.204 181.495C313.924 181.775 313.578 181.915 313.168 181.915H302.808ZM322.769 181.915C322.395 181.915 322.069 181.775 321.789 181.495C321.509 181.215 321.369 180.879 321.369 180.487V163.407L319.325 164.275C319.007 164.406 318.709 164.471 318.429 164.471C318.018 164.471 317.673 164.341 317.393 164.079C317.131 163.818 317.001 163.482 317.001 163.071C317.001 162.773 317.075 162.502 317.225 162.259C317.374 162.017 317.607 161.839 317.925 161.727L322.293 160.159C322.386 160.122 322.479 160.094 322.573 160.075C322.666 160.057 322.75 160.047 322.825 160.047C323.254 160.047 323.59 160.187 323.833 160.467C324.094 160.729 324.225 161.074 324.225 161.503V180.487C324.225 180.879 324.085 181.215 323.805 181.495C323.525 181.775 323.179 181.915 322.769 181.915ZM17.2424 213.363C15.4504 213.363 13.8637 213.037 12.4824 212.383C11.101 211.711 10.0184 210.787 9.23438 209.611C8.46904 208.435 8.08638 207.091 8.08638 205.579V192.503C8.08638 192.074 8.22638 191.729 8.50638 191.467C8.78638 191.187 9.13171 191.047 9.54238 191.047C9.97171 191.047 10.317 191.187 10.5784 191.467C10.8584 191.729 10.9984 192.074 10.9984 192.503V205.579C10.9984 206.587 11.2597 207.483 11.7824 208.267C12.3237 209.033 13.061 209.639 13.9944 210.087C14.9464 210.517 16.029 210.731 17.2424 210.731C18.4184 210.731 19.4544 210.517 20.3504 210.087C21.265 209.639 21.9744 209.033 22.4784 208.267C23.001 207.483 23.2624 206.587 23.2624 205.579V192.503C23.2624 192.074 23.4024 191.729 23.6824 191.467C23.9624 191.187 24.3077 191.047 24.7184 191.047C25.1477 191.047 25.493 191.187 25.7544 191.467C26.0157 191.729 26.1464 192.074 26.1464 192.503V205.579C26.1464 207.091 25.7637 208.435 24.9984 209.611C24.2517 210.787 23.2064 211.711 21.8624 212.383C20.5184 213.037 18.9784 213.363 17.2424 213.363ZM33.1667 212.915C32.7561 212.915 32.4107 212.775 32.1307 212.495C31.8694 212.215 31.7387 211.87 31.7387 211.459V192.503C31.7387 192.074 31.8694 191.729 32.1307 191.467C32.4107 191.187 32.7561 191.047 33.1667 191.047C33.6147 191.047 33.9881 191.225 34.2867 191.579L46.4947 207.819V192.503C46.4947 192.074 46.6347 191.729 46.9147 191.467C47.1947 191.187 47.5401 191.047 47.9507 191.047C48.3801 191.047 48.7254 191.187 48.9867 191.467C49.2481 191.729 49.3787 192.074 49.3787 192.503V211.459C49.3787 211.87 49.2481 212.215 48.9867 212.495C48.7254 212.775 48.3801 212.915 47.9507 212.915C47.7641 212.915 47.5587 212.878 47.3347 212.803C47.1294 212.71 46.9614 212.579 46.8307 212.411L34.6227 196.171V211.459C34.6227 211.87 34.4827 212.215 34.2027 212.495C33.9414 212.775 33.5961 212.915 33.1667 212.915ZM56.4369 212.915C56.0262 212.915 55.6809 212.775 55.4009 212.495C55.1209 212.215 54.9809 211.87 54.9809 211.459V192.503C54.9809 192.074 55.1209 191.729 55.4009 191.467C55.6809 191.187 56.0262 191.047 56.4369 191.047C56.8662 191.047 57.2116 191.187 57.4729 191.467C57.7529 191.729 57.8929 192.074 57.8929 192.503V211.459C57.8929 211.87 57.7529 212.215 57.4729 212.495C57.2116 212.775 56.8662 212.915 56.4369 212.915ZM70.9888 212.915C70.3915 212.915 69.9528 212.607 69.6728 211.991L61.4688 193.231C61.2075 192.597 61.1795 192.074 61.3848 191.663C61.5901 191.253 61.9821 191.047 62.5608 191.047C63.2141 191.047 63.6621 191.337 63.9048 191.915L70.9608 208.827L78.1288 191.915C78.2781 191.579 78.4461 191.355 78.6328 191.243C78.8381 191.113 79.1088 191.047 79.4448 191.047C80.0048 191.047 80.3875 191.253 80.5928 191.663C80.8168 192.055 80.8168 192.494 80.5928 192.979L72.3048 211.991C72.0621 212.607 71.6235 212.915 70.9888 212.915ZM85.5853 212.915C85.1747 212.915 84.8293 212.775 84.5493 212.495C84.2693 212.215 84.1293 211.87 84.1293 211.459V192.503C84.1293 192.074 84.2693 191.729 84.5493 191.467C84.8293 191.187 85.1747 191.047 85.5853 191.047H98.2413C98.6707 191.047 99.016 191.178 99.2773 191.439C99.5387 191.682 99.6693 192.009 99.6693 192.419C99.6693 192.811 99.5387 193.129 99.2773 193.371C99.016 193.614 98.6707 193.735 98.2413 193.735H87.0413V200.539H95.0773C95.5067 200.539 95.852 200.67 96.1133 200.931C96.3747 201.174 96.5053 201.491 96.5053 201.883C96.5053 202.275 96.3747 202.602 96.1133 202.863C95.852 203.106 95.5067 203.227 95.0773 203.227H87.0413V210.227H98.2413C98.6707 210.227 99.016 210.349 99.2773 210.591C99.5387 210.834 99.6693 211.151 99.6693 211.543C99.6693 211.954 99.5387 212.29 99.2773 212.551C99.016 212.794 98.6707 212.915 98.2413 212.915H85.5853ZM105.191 212.915C104.78 212.915 104.435 212.775 104.155 212.495C103.875 212.215 103.735 211.87 103.735 211.459V192.503C103.735 192.074 103.875 191.729 104.155 191.467C104.435 191.187 104.78 191.047 105.191 191.047H110.231C111.631 191.047 112.872 191.346 113.955 191.943C115.037 192.522 115.877 193.325 116.475 194.351C117.091 195.378 117.399 196.573 117.399 197.935C117.399 199.279 117.063 200.465 116.391 201.491C115.719 202.499 114.804 203.265 113.647 203.787L117.931 210.675C118.267 211.217 118.313 211.73 118.071 212.215C117.828 212.682 117.408 212.915 116.811 212.915C116.269 212.915 115.849 212.682 115.551 212.215L110.735 204.487C110.567 204.487 110.399 204.487 110.231 204.487H106.647V211.459C106.647 211.87 106.507 212.215 106.227 212.495C105.965 212.775 105.62 212.915 105.191 212.915ZM106.647 201.799H110.231C111.5 201.799 112.545 201.445 113.367 200.735C114.188 200.007 114.599 199.074 114.599 197.935C114.599 196.703 114.188 195.695 113.367 194.911C112.545 194.127 111.5 193.735 110.231 193.735H106.647V201.799ZM128.37 213.195C127.176 213.195 126.037 213.009 124.954 212.635C123.872 212.262 122.929 211.739 122.126 211.067C121.324 210.395 120.736 209.621 120.362 208.743C120.176 208.351 120.176 207.987 120.362 207.651C120.568 207.315 120.904 207.101 121.37 207.007C121.706 206.933 122.033 206.989 122.35 207.175C122.686 207.343 122.938 207.605 123.106 207.959C123.33 208.426 123.694 208.855 124.198 209.247C124.721 209.639 125.346 209.957 126.074 210.199C126.802 210.442 127.568 210.563 128.37 210.563C129.266 210.563 130.088 210.423 130.834 210.143C131.6 209.863 132.216 209.462 132.682 208.939C133.149 208.398 133.382 207.735 133.382 206.951C133.382 205.962 132.99 205.075 132.206 204.291C131.441 203.507 130.172 203.022 128.398 202.835C126.084 202.611 124.264 201.93 122.938 200.791C121.613 199.653 120.95 198.243 120.95 196.563C120.95 195.331 121.296 194.286 121.986 193.427C122.677 192.569 123.61 191.915 124.786 191.467C125.981 191.019 127.306 190.795 128.762 190.795C130.461 190.795 131.852 191.141 132.934 191.831C134.017 192.522 134.913 193.437 135.622 194.575C135.884 194.986 135.986 195.378 135.93 195.751C135.893 196.106 135.716 196.386 135.398 196.591C135.044 196.815 134.661 196.862 134.25 196.731C133.84 196.601 133.532 196.358 133.326 196.003C132.86 195.201 132.253 194.575 131.506 194.127C130.778 193.679 129.836 193.446 128.678 193.427C127.297 193.409 126.14 193.67 125.206 194.211C124.273 194.734 123.806 195.546 123.806 196.647C123.806 197.207 123.946 197.749 124.226 198.271C124.525 198.775 125.057 199.214 125.822 199.587C126.606 199.961 127.726 200.222 129.182 200.371C131.404 200.595 133.13 201.277 134.362 202.415C135.613 203.535 136.238 205.019 136.238 206.867C136.238 207.931 136.014 208.855 135.566 209.639C135.137 210.423 134.549 211.086 133.802 211.627C133.074 212.15 132.234 212.542 131.282 212.803C130.349 213.065 129.378 213.195 128.37 213.195ZM142.16 212.915C141.749 212.915 141.404 212.775 141.124 212.495C140.844 212.215 140.704 211.87 140.704 211.459V192.503C140.704 192.074 140.844 191.729 141.124 191.467C141.404 191.187 141.749 191.047 142.16 191.047C142.589 191.047 142.934 191.187 143.196 191.467C143.476 191.729 143.616 192.074 143.616 192.503V211.459C143.616 211.87 143.476 212.215 143.196 212.495C142.934 212.775 142.589 212.915 142.16 212.915ZM155.675 212.915C155.265 212.915 154.919 212.775 154.639 212.495C154.359 212.215 154.219 211.87 154.219 211.459V193.735H148.171C147.779 193.735 147.453 193.614 147.191 193.371C146.949 193.11 146.827 192.783 146.827 192.391C146.827 191.999 146.949 191.682 147.191 191.439C147.453 191.178 147.779 191.047 148.171 191.047H163.151C163.543 191.047 163.861 191.178 164.103 191.439C164.365 191.682 164.495 191.999 164.495 192.391C164.495 192.783 164.365 193.11 164.103 193.371C163.861 193.614 163.543 193.735 163.151 193.735H157.131V211.459C157.131 211.87 156.991 212.215 156.711 212.495C156.431 212.775 156.086 212.915 155.675 212.915ZM174.271 212.915C173.879 212.915 173.543 212.775 173.263 212.495C172.983 212.215 172.843 211.87 172.843 211.459V204.935L165.367 193.315C165.125 192.923 165.031 192.559 165.087 192.223C165.143 191.869 165.302 191.589 165.563 191.383C165.843 191.159 166.161 191.047 166.515 191.047C166.833 191.047 167.085 191.122 167.271 191.271C167.458 191.402 167.635 191.598 167.803 191.859L174.355 202.247L181.019 191.747C181.318 191.281 181.747 191.047 182.307 191.047C182.643 191.047 182.923 191.169 183.147 191.411C183.371 191.635 183.502 191.925 183.539 192.279C183.577 192.615 183.483 192.961 183.259 193.315L175.727 204.935V211.459C175.727 211.87 175.587 212.215 175.307 212.495C175.027 212.775 174.682 212.915 174.271 212.915ZM204.788 213.195C203.145 213.195 201.643 212.925 200.28 212.383C198.917 211.823 197.741 211.049 196.752 210.059C195.781 209.051 195.025 207.866 194.484 206.503C193.943 205.122 193.672 203.61 193.672 201.967C193.672 200.325 193.943 198.822 194.484 197.459C195.025 196.097 195.781 194.921 196.752 193.931C197.741 192.923 198.917 192.149 200.28 191.607C201.643 191.047 203.145 190.767 204.788 190.767C206.431 190.767 207.924 191.047 209.268 191.607C210.631 192.149 211.807 192.923 212.796 193.931C213.785 194.921 214.551 196.097 215.092 197.459C215.633 198.822 215.904 200.325 215.904 201.967C215.904 203.61 215.633 205.122 215.092 206.503C214.551 207.866 213.785 209.051 212.796 210.059C211.807 211.049 210.631 211.823 209.268 212.383C207.924 212.925 206.431 213.195 204.788 213.195ZM204.788 210.563C206.412 210.563 207.849 210.19 209.1 209.443C210.351 208.678 211.331 207.651 212.04 206.363C212.749 205.057 213.104 203.591 213.104 201.967C213.104 200.343 212.749 198.887 212.04 197.599C211.331 196.293 210.351 195.266 209.1 194.519C207.849 193.773 206.412 193.399 204.788 193.399C203.164 193.399 201.727 193.773 200.476 194.519C199.225 195.266 198.245 196.293 197.536 197.599C196.827 198.887 196.472 200.343 196.472 201.967C196.472 203.591 196.827 205.057 197.536 206.363C198.245 207.651 199.225 208.678 200.476 209.443C201.727 210.19 203.164 210.563 204.788 210.563ZM220.157 212.915C219.747 212.915 219.401 212.775 219.121 212.495C218.841 212.215 218.701 211.87 218.701 211.459V192.503C218.701 192.074 218.841 191.729 219.121 191.467C219.401 191.187 219.747 191.047 220.157 191.047H232.813C233.243 191.047 233.588 191.178 233.849 191.439C234.111 191.682 234.241 192.009 234.241 192.419C234.241 192.811 234.111 193.129 233.849 193.371C233.588 193.614 233.243 193.735 232.813 193.735H221.613V200.539H229.649C230.079 200.539 230.424 200.67 230.685 200.931C230.947 201.174 231.077 201.491 231.077 201.883C231.077 202.275 230.947 202.602 230.685 202.863C230.424 203.106 230.079 203.227 229.649 203.227H221.613V211.459C221.613 211.87 221.473 212.215 221.193 212.495C220.913 212.775 220.568 212.915 220.157 212.915ZM247.624 212.915C247.214 212.915 246.868 212.775 246.588 212.495C246.308 212.215 246.168 211.87 246.168 211.459V192.503C246.168 192.074 246.308 191.729 246.588 191.467C246.868 191.187 247.214 191.047 247.624 191.047H254.316C255.586 191.047 256.696 191.299 257.648 191.803C258.619 192.289 259.375 192.97 259.916 193.847C260.476 194.725 260.756 195.733 260.756 196.871C260.756 197.786 260.504 198.617 260 199.363C259.515 200.091 258.843 200.67 257.984 201.099C259.216 201.398 260.206 201.986 260.952 202.863C261.699 203.741 262.072 204.889 262.072 206.307C262.072 207.595 261.764 208.734 261.148 209.723C260.551 210.713 259.711 211.497 258.628 212.075C257.546 212.635 256.304 212.915 254.904 212.915H247.624ZM249.08 200.035H254.316C255.38 200.035 256.248 199.774 256.92 199.251C257.611 198.729 257.956 197.935 257.956 196.871C257.956 195.807 257.611 195.023 256.92 194.519C256.248 193.997 255.38 193.735 254.316 193.735H249.08V200.035ZM249.08 210.227H254.904C256.174 210.227 257.219 209.901 258.04 209.247C258.862 208.575 259.272 207.595 259.272 206.307C259.272 205.113 258.862 204.217 258.04 203.619C257.219 203.022 256.174 202.723 254.904 202.723H249.08V210.227ZM267.859 212.915C267.448 212.915 267.103 212.775 266.823 212.495C266.543 212.215 266.403 211.87 266.403 211.459V192.503C266.403 192.074 266.543 191.729 266.823 191.467C267.103 191.187 267.448 191.047 267.859 191.047H280.515C280.944 191.047 281.289 191.178 281.551 191.439C281.812 191.682 281.943 192.009 281.943 192.419C281.943 192.811 281.812 193.129 281.551 193.371C281.289 193.614 280.944 193.735 280.515 193.735H269.315V200.539H277.351C277.78 200.539 278.125 200.67 278.387 200.931C278.648 201.174 278.779 201.491 278.779 201.883C278.779 202.275 278.648 202.602 278.387 202.863C278.125 203.106 277.78 203.227 277.351 203.227H269.315V210.227H280.515C280.944 210.227 281.289 210.349 281.551 210.591C281.812 210.834 281.943 211.151 281.943 211.543C281.943 211.954 281.812 212.29 281.551 212.551C281.289 212.794 280.944 212.915 280.515 212.915H267.859ZM287.436 212.915C287.026 212.915 286.68 212.775 286.4 212.495C286.139 212.215 286.008 211.87 286.008 211.459V192.503C286.008 192.093 286.148 191.747 286.428 191.467C286.708 191.187 287.044 191.047 287.436 191.047C287.847 191.047 288.192 191.187 288.472 191.467C288.752 191.747 288.892 192.093 288.892 192.503V210.003H299.028C299.439 210.003 299.784 210.143 300.064 210.423C300.344 210.703 300.484 211.049 300.484 211.459C300.484 211.87 300.344 212.215 300.064 212.495C299.784 212.775 299.439 212.915 299.028 212.915H287.436ZM311.804 213.195C310.292 213.195 308.874 212.915 307.548 212.355C306.242 211.777 305.094 210.983 304.104 209.975C303.134 208.949 302.368 207.754 301.808 206.391C301.267 205.029 300.996 203.554 300.996 201.967C300.996 200.399 301.267 198.943 301.808 197.599C302.368 196.237 303.134 195.051 304.104 194.043C305.094 193.017 306.242 192.214 307.548 191.635C308.855 191.057 310.274 190.767 311.804 190.767C313.242 190.767 314.474 190.954 315.5 191.327C316.546 191.701 317.591 192.317 318.636 193.175C318.86 193.362 319.01 193.539 319.084 193.707C319.159 193.875 319.196 194.081 319.196 194.323C319.196 194.678 319.066 194.977 318.804 195.219C318.562 195.462 318.254 195.593 317.88 195.611C317.526 195.63 317.19 195.509 316.872 195.247C316.182 194.65 315.463 194.193 314.716 193.875C313.988 193.558 313.018 193.399 311.804 193.399C310.703 193.399 309.667 193.623 308.696 194.071C307.726 194.519 306.867 195.135 306.12 195.919C305.392 196.703 304.823 197.618 304.412 198.663C304.002 199.69 303.796 200.791 303.796 201.967C303.796 203.162 304.002 204.282 304.412 205.327C304.823 206.354 305.392 207.259 306.12 208.043C306.867 208.827 307.726 209.443 308.696 209.891C309.667 210.321 310.703 210.535 311.804 210.535C312.626 210.535 313.41 210.414 314.156 210.171C314.903 209.929 315.622 209.583 316.312 209.135V204.151H312.448C312.038 204.151 311.692 204.03 311.412 203.787C311.132 203.545 310.992 203.237 310.992 202.863C310.992 202.49 311.132 202.182 311.412 201.939C311.692 201.697 312.038 201.575 312.448 201.575H317.684C318.114 201.575 318.459 201.715 318.72 201.995C318.982 202.257 319.112 202.602 319.112 203.031V209.723C319.112 209.91 319.075 210.097 319 210.283C318.944 210.451 318.832 210.61 318.664 210.759C317.675 211.581 316.602 212.197 315.444 212.607C314.287 212.999 313.074 213.195 311.804 213.195ZM325.226 212.915C324.815 212.915 324.47 212.775 324.19 212.495C323.91 212.215 323.77 211.87 323.77 211.459V192.503C323.77 192.074 323.91 191.729 324.19 191.467C324.47 191.187 324.815 191.047 325.226 191.047H330.266C331.666 191.047 332.907 191.346 333.99 191.943C335.073 192.522 335.913 193.325 336.51 194.351C337.126 195.378 337.434 196.573 337.434 197.935C337.434 199.279 337.098 200.465 336.426 201.491C335.754 202.499 334.839 203.265 333.682 203.787L337.966 210.675C338.302 211.217 338.349 211.73 338.106 212.215C337.863 212.682 337.443 212.915 336.846 212.915C336.305 212.915 335.885 212.682 335.586 212.215L330.77 204.487C330.602 204.487 330.434 204.487 330.266 204.487H326.682V211.459C326.682 211.87 326.542 212.215 326.262 212.495C326.001 212.775 325.655 212.915 325.226 212.915ZM326.682 201.799H330.266C331.535 201.799 332.581 201.445 333.402 200.735C334.223 200.007 334.634 199.074 334.634 197.935C334.634 196.703 334.223 195.695 333.402 194.911C332.581 194.127 331.535 193.735 330.266 193.735H326.682V201.799ZM340.593 212.915C340.071 212.915 339.669 212.691 339.389 212.243C339.109 211.795 339.081 211.319 339.305 210.815L347.173 192.027C347.453 191.374 347.911 191.047 348.545 191.047C349.217 191.047 349.675 191.374 349.917 192.027L357.813 210.871C358.019 211.394 357.981 211.87 357.701 212.299C357.44 212.71 357.039 212.915 356.497 212.915C356.217 212.915 355.947 212.841 355.685 212.691C355.443 212.523 355.265 212.299 355.153 212.019L353.585 208.099H343.533L341.937 212.019C341.807 212.318 341.611 212.542 341.349 212.691C341.107 212.841 340.855 212.915 340.593 212.915ZM344.513 205.691H352.605L348.601 195.723L344.513 205.691ZM362.605 212.915C362.194 212.915 361.849 212.775 361.569 212.495C361.289 212.215 361.149 211.87 361.149 211.459V192.503C361.149 192.074 361.289 191.729 361.569 191.467C361.849 191.187 362.194 191.047 362.605 191.047H367.673C369.278 191.047 370.734 191.318 372.041 191.859C373.366 192.382 374.514 193.138 375.485 194.127C376.456 195.098 377.202 196.246 377.725 197.571C378.248 198.897 378.509 200.362 378.509 201.967C378.509 203.573 378.248 205.047 377.725 206.391C377.202 207.717 376.456 208.874 375.485 209.863C374.514 210.834 373.366 211.59 372.041 212.131C370.734 212.654 369.278 212.915 367.673 212.915H362.605ZM364.061 210.339H367.673C369.241 210.339 370.622 209.985 371.817 209.275C373.03 208.547 373.982 207.558 374.673 206.307C375.364 205.038 375.709 203.591 375.709 201.967C375.709 200.325 375.364 198.878 374.673 197.627C373.982 196.377 373.03 195.397 371.817 194.687C370.622 193.978 369.241 193.623 367.673 193.623H364.061V210.339ZM384.535 212.915C384.124 212.915 383.779 212.775 383.499 212.495C383.219 212.215 383.079 211.87 383.079 211.459V192.503C383.079 192.074 383.219 191.729 383.499 191.467C383.779 191.187 384.124 191.047 384.535 191.047H397.191C397.62 191.047 397.965 191.178 398.227 191.439C398.488 191.682 398.619 192.009 398.619 192.419C398.619 192.811 398.488 193.129 398.227 193.371C397.965 193.614 397.62 193.735 397.191 193.735H385.991V200.539H394.027C394.456 200.539 394.801 200.67 395.063 200.931C395.324 201.174 395.455 201.491 395.455 201.883C395.455 202.275 395.324 202.602 395.063 202.863C394.801 203.106 394.456 203.227 394.027 203.227H385.991V210.227H397.191C397.62 210.227 397.965 210.349 398.227 210.591C398.488 210.834 398.619 211.151 398.619 211.543C398.619 211.954 398.488 212.29 398.227 212.551C397.965 212.794 397.62 212.915 397.191 212.915H384.535Z" fill="#F3F3F3"/>
</g>
<defs>
<clipPath id="clip0">
<rect width="2560" height="333.333" fill="white" transform="translate(-88 -53)"/>
</clipPath>
</defs>
</svg>
