<svg width="150" height="154" viewBox="0 0 150 154" fill="none" xmlns="http://www.w3.org/2000/svg">
<circle cx="75" cy="75" r="75" fill="#E34674"/>
<path d="M29.2529 70V44.08H34.7609V70H29.2529ZM42.4241 70C40.9601 70 39.7001 69.484 38.6441 68.452C37.6121 67.396 37.0961 66.136 37.0961 64.672V49.408C37.0961 47.944 37.6121 46.696 38.6441 45.664C39.7001 44.608 40.9601 44.08 42.4241 44.08H62.9441V49.696H43.8641C43.0721 49.696 42.6761 49.696 42.6761 49.696C42.6761 49.696 42.6761 50.092 42.6761 50.884V63.196C42.6761 63.988 42.6761 64.384 42.6761 64.384C42.6761 64.384 43.0721 64.384 43.8641 64.384H62.9441V70H42.4241ZM72.0256 70C70.5616 70 69.3016 69.484 68.2456 68.452C67.2136 67.396 66.6976 66.136 66.6976 64.672V49.408C66.6976 47.944 67.2136 46.696 68.2456 45.664C69.3016 44.608 70.5616 44.08 72.0256 44.08H87.2536C88.7176 44.08 89.9776 44.608 91.0336 45.664C92.0896 46.696 92.6176 47.944 92.6176 49.408V51.856H86.9656V50.884C86.9656 50.092 86.9656 49.696 86.9656 49.696C86.9656 49.696 86.5696 49.696 85.7776 49.696H73.4656C72.6736 49.696 72.2776 49.696 72.2776 49.696C72.2776 49.696 72.2776 50.092 72.2776 50.884V63.196C72.2776 63.988 72.2776 64.384 72.2776 64.384C72.2776 64.384 72.6736 64.384 73.4656 64.384H85.7776C86.5696 64.384 86.9656 64.384 86.9656 64.384C86.9656 64.384 86.9656 63.988 86.9656 63.196V60.496H81.3496V54.88H92.6176V64.672C92.6176 66.136 92.0896 67.396 91.0336 68.452C89.9776 69.484 88.7176 70 87.2536 70H72.0256ZM96.6165 70V44.044H102.196V64.384H122.536V70H96.6165ZM61.5593 115V97.468L60.3713 98.944H53.0633L61.3433 89.08H67.0673V115H61.5593ZM74.3978 115C72.9578 115 71.7218 114.484 70.6898 113.452C69.6578 112.42 69.1418 111.196 69.1418 109.78V107.764H74.6498V108.304C74.6498 109.096 74.6498 109.492 74.6498 109.492C74.6498 109.492 75.0458 109.492 75.8378 109.492H87.8978C88.6898 109.492 89.0858 109.492 89.0858 109.492C89.0858 109.492 89.0858 109.096 89.0858 108.304V105.82C89.0858 105.028 89.0858 104.632 89.0858 104.632C89.0858 104.632 88.6898 104.632 87.8978 104.632H69.1418V89.08H94.5938V94.588H75.8378C75.0458 94.588 74.6498 94.588 74.6498 94.588C74.6498 94.588 74.6498 94.984 74.6498 95.776V97.9C74.6498 98.692 74.6498 99.088 74.6498 99.088C74.6498 99.088 75.0458 99.088 75.8378 99.088H89.3378C90.7778 99.088 92.0138 99.604 93.0458 100.636C94.0778 101.644 94.5938 102.868 94.5938 104.308V109.78C94.5938 111.196 94.0778 112.42 93.0458 113.452C92.0138 114.484 90.7778 115 89.3378 115H74.3978Z" fill="white"/>
</svg>
